<svg width="24" height="26" viewBox="0 0 24 26" fill="none" xmlns="http://www.w3.org/2000/svg">
<path d="M19.0045 8.2016C19.0045 6.29162 18.2457 4.45986 16.8951 3.1093C15.5445 1.75874 13.7127 1 11.8027 1C9.89265 1 8.06084 1.75874 6.71025 3.1093C5.35965 4.45986 4.60089 6.29162 4.60089 8.2016C4.60089 16.6035 1 19.004 1 19.004H22.6054C22.6054 19.004 19.0045 16.6035 19.0045 8.2016Z" stroke="#2D3748" stroke-linecap="round" stroke-linejoin="round"/>
<path d="M13.8835 23.804C13.6725 24.1677 13.3696 24.4697 13.0052 24.6796C12.6407 24.8895 12.2275 25 11.807 25C11.3864 25 10.9732 24.8895 10.6088 24.6796C10.2444 24.4697 9.94149 24.1677 9.73047 23.804" stroke="#2D3748" stroke-linecap="round" stroke-linejoin="round"/>
</svg>
