<?xml version="1.0" encoding="iso-8859-1"?>
<svg fill="currentColor" height="24" width="24" version="1.1" id="Layer_1" xmlns="http://www.w3.org/2000/svg" xmlns:xlink="http://www.w3.org/1999/xlink" 
	 viewBox="0 0 490 490" xml:space="preserve">
<g>
	<g>
		<path d="M483.194,439l-77.6-77.6c28.4-38.1,39-88.8,24.1-137.7c-23.4-77-101.2-122.5-178.5-107.1v-75h6.2
			c11.4,0,20.8-9.4,20.8-20.8c0-11.4-9.4-20.8-20.8-20.8h-236.1c-11.4,0-20.8,9.4-20.8,20.8c0,11.4,9.4,20.8,20.8,20.8h5.2v354.8
			c0,51,42.7,93.6,94.7,93.6h35.4c43.5,0,80.4-29.8,91.4-70c25.2,5.6,52.1,5,78.5-3c18.8-5.7,35.8-14.7,50.4-26.1l77.3,77.3
			c8.3,8.3,20.8,8.3,29.1,0C491.594,459.8,491.594,447.3,483.194,439z M156.594,448.4h-35.4c-29.1,0-53.1-23.9-53.1-53.1V41.6h141.5
			v89.5c0,0.1,0,0.1,0,0.2c-64.8,33.8-98.6,109.9-76.6,182.4c12.5,41.1,40.4,73.2,75.5,91.9
			C203.794,429.8,182.194,448.4,156.594,448.4z M314.294,377.2c-59.9,18.2-123.3-15.7-141.5-75.6c-18.2-59.9,15.7-123.3,75.6-141.5
			c59.9-18.2,123.3,15.7,141.5,75.6C408.094,295.6,374.294,359,314.294,377.2z"/>
	</g>
</g>
</svg>