<svg width="24" height="24" viewBox="0 0 24 24" fill="none" xmlns="http://www.w3.org/2000/svg">
<path d="M11 12V4M4 12H20M19.4 20H4.6C4.44087 20 4.28826 19.9368 4.17574 19.8243C4.06321 19.7117 4 19.5591 4 19.4V4.6C4 4.44087 4.06321 4.28826 4.17574 4.17574C4.28826 4.06321 4.44087 4 4.6 4H19.4C19.5591 4 19.7117 4.06321 19.8243 4.17574C19.9368 4.28826 20 4.44087 20 4.6V19.4C20 19.5591 19.9368 19.7117 19.8243 19.8243C19.7117 19.9368 19.5591 20 19.4 20Z" stroke="currentColor" strokeWidth="1.5"/>
</svg>
