<svg width="17" height="19" viewBox="0 0 17 19" fill="none" xmlns="http://www.w3.org/2000/svg">
<path d="M13.7632 14.2368C14.2657 14.2368 14.7476 14.4364 15.1029 14.7917C15.4583 15.1471 15.6579 15.629 15.6579 16.1315C15.6579 16.634 15.4583 17.116 15.1029 17.4713C14.7476 17.8266 14.2657 18.0263 13.7632 18.0263C13.2606 18.0263 12.7787 17.8266 12.4234 17.4713C12.068 17.116 11.8684 16.634 11.8684 16.1315C11.8684 15.629 12.068 15.1471 12.4234 14.7917C12.7787 14.4364 13.2606 14.2368 13.7632 14.2368ZM13.7632 14.2368V4.76311C13.7632 4.76311 13.7632 2.86837 11.8684 2.86837H9.02632M2.39474 4.76311C2.89725 4.76311 3.37919 4.56348 3.73452 4.20815C4.08985 3.85282 4.28947 3.37089 4.28947 2.86837C4.28947 2.36585 4.08985 1.88392 3.73452 1.52859C3.37919 1.17326 2.89725 0.973633 2.39474 0.973633C1.89222 0.973633 1.41029 1.17326 1.05496 1.52859C0.699623 1.88392 0.5 2.36585 0.5 2.86837C0.5 3.37089 0.699623 3.85282 1.05496 4.20815C1.41029 4.56348 1.89222 4.76311 2.39474 4.76311ZM2.39474 4.76311V14.2368C2.39474 14.2368 2.39474 16.1315 4.28947 16.1315H7.13158" stroke="#2D3748" stroke-linecap="round" stroke-linejoin="round"/>
<path d="M10.9206 5.23684L8.55217 2.86842L10.9206 0.5M4.7627 13.7632L7.13112 16.1316L4.7627 18.5" stroke="#2D3748" stroke-linecap="round" stroke-linejoin="round"/>
</svg>
