<svg width="18" height="18" viewBox="0 0 18 18" fill="none" xmlns="http://www.w3.org/2000/svg">
<path d="M3.25 14.25H14.25M8.75 3.25V10.5833M8.75 10.5833L11.9583 7.375M8.75 10.5833L5.54167 7.375" stroke="#001E95" stroke-linecap="round" stroke-linejoin="round"/>
<path d="M0.5 16.45V1.05C0.5 0.904131 0.557946 0.764236 0.661091 0.661091C0.764236 0.557946 0.904131 0.5 1.05 0.5H16.45C16.5959 0.5 16.7358 0.557946 16.8389 0.661091C16.9421 0.764236 17 0.904131 17 1.05V16.45C17 16.5959 16.9421 16.7358 16.8389 16.8389C16.7358 16.9421 16.5959 17 16.45 17H1.05C0.904131 17 0.764236 16.9421 0.661091 16.8389C0.557946 16.7358 0.5 16.5959 0.5 16.45Z" stroke="#001E95"/>
</svg>
