<svg width="18" height="18" viewBox="0 0 18 18" fill="none" xmlns="http://www.w3.org/2000/svg">
<g clip-path="url(#clip0_3615_39712)">
<path d="M4.5 11.2499H2.25M2.25 15.7499H11.25C11.949 15.7499 12.2985 15.7499 12.5737 15.6359C12.7559 15.5605 12.9213 15.45 13.0607 15.3106C13.2001 15.1712 13.3106 15.0057 13.386 14.8236C13.5 14.5484 13.5 14.1989 13.5 13.4999C13.5 12.8009 13.5 12.4514 13.386 12.1761C13.3106 11.994 13.2001 11.8285 13.0607 11.6892C12.9213 11.5498 12.7559 11.4393 12.5737 11.3639C12.2985 11.2499 11.949 11.2499 11.25 11.2499H9.75H13.5C14.199 11.2499 14.5485 11.2499 14.8237 11.1359C15.0059 11.0605 15.1713 10.95 15.3107 10.8106C15.4501 10.6712 15.5606 10.5057 15.636 10.3236C15.75 10.0484 15.75 9.69888 15.75 8.99988C15.75 8.30088 15.75 7.95138 15.636 7.67613C15.5606 7.49401 15.4501 7.32854 15.3107 7.18917C15.1713 7.0498 15.0059 6.93926 14.8237 6.86388C14.5485 6.74988 14.199 6.74988 13.5 6.74988H2.25H10.5C11.199 6.74988 11.5485 6.74988 11.8238 6.63588C12.0059 6.56049 12.1713 6.44996 12.3107 6.31059C12.4501 6.17121 12.5606 6.00574 12.636 5.82363C12.75 5.54838 12.75 5.19888 12.75 4.49988C12.75 3.80088 12.75 3.45138 12.636 3.17613C12.5606 2.99401 12.4501 2.82854 12.3107 2.68917C12.1713 2.5498 12.0059 2.43926 11.8238 2.36388C11.5485 2.24988 11.199 2.24988 10.5 2.24988H2.25" stroke="#2D3748" stroke-linecap="round" stroke-linejoin="round"/>
<path d="M9.75 6.74988V11.3924C9.75 12.2286 9.75 12.6464 9.5055 12.7349C9.26025 12.8249 8.9835 12.5069 8.43075 11.8724L8.06925 11.4584C7.8045 11.1546 7.6725 11.0031 7.5 11.0031C7.3275 11.0031 7.1955 11.1546 6.93 11.4584L6.57 11.8724C6.0165 12.5069 5.73975 12.8249 5.49525 12.7349C5.25 12.6464 5.25 12.2286 5.25 11.3924V6.74988" stroke="#2D3748" stroke-linecap="round" stroke-linejoin="round"/>
</g>
<defs>
<clipPath id="clip0_3615_39712">
<rect width="18" height="18" fill="white"/>
</clipPath>
</defs>
</svg>
