<svg
  xmlns="http://www.w3.org/2000/svg"
  viewBox="0 0 90 90"
  fill="currentColor"
>
  <path
    d="M37.882 90c-0.338 0-0.676-0.086-0.981-0.258c-0.629-0.354-1.019-1.02-1.019-1.742V45.354L3.923 3.208C3.464 2.604 3.388 1.791 3.726 1.11S4.758 0 5.517 0h78.966c0.76 0 1.453 0.43 1.791 1.11s0.262 1.493-0.197 2.098L54.118 45.354V79.37c0 0.699-0.365 1.348-0.963 1.71l-14.237 8.63C38.601 89.903 38.241 90 37.882 90zM9.543 4l29.932 39.474c0.264 0.348 0.406 0.772 0.406 1.208v39.767l10.236-6.205V44.682c0-0.437 0.143-0.861 0.406-1.208L80.457 4H9.543z"
  />
</svg>
