<svg width="18" height="19" viewBox="0 0 18 19" fill="none" xmlns="http://www.w3.org/2000/svg">
<path d="M12.9137 16.1C12.9137 16.7365 13.1553 17.347 13.5853 17.7971C14.0154 18.2471 14.5986 18.5 15.2068 18.5C15.815 18.5 16.3983 18.2471 16.8283 17.7971C17.2584 17.347 17.5 16.7365 17.5 16.1V2.9C17.5 2.26348 17.2584 1.65303 16.8283 1.20294C16.3983 0.752856 15.815 0.5 15.2068 0.5C14.5986 0.5 14.0154 0.752856 13.5853 1.20294C13.1553 1.65303 12.9137 2.26348 12.9137 2.9V16.1ZM6.61511 16.1C6.61511 16.7365 6.85671 17.347 7.28676 17.7971C7.71681 18.2471 8.30009 18.5 8.90827 18.5C9.51646 18.5 10.0997 18.2471 10.5298 17.7971C10.9598 17.347 11.2014 16.7365 11.2014 16.1V11.7C11.2014 11.0635 10.9598 10.453 10.5298 10.0029C10.0997 9.55286 9.51646 9.3 8.90827 9.3C8.30009 9.3 7.71681 9.55286 7.28676 10.0029C6.85671 10.453 6.61511 11.0635 6.61511 11.7V16.1ZM0.5 16.1C0.5 16.7365 0.741601 17.347 1.17165 17.7971C1.6017 18.2471 2.18498 18.5 2.79317 18.5C3.40135 18.5 3.98463 18.2471 4.41468 17.7971C4.84473 17.347 5.08633 16.7365 5.08633 16.1C5.08633 15.4635 4.84473 14.853 4.41468 14.4029C3.98463 13.9529 3.40135 13.7 2.79317 13.7C2.18498 13.7 1.6017 13.9529 1.17165 14.4029C0.741601 14.853 0.5 15.4635 0.5 16.1Z" stroke="#2D3748" stroke-linecap="round" stroke-linejoin="round"/>
</svg>
