<svg width="18" height="18" viewBox="0 0 18 18" fill="none" xmlns="http://www.w3.org/2000/svg">
<g clip-path="url(#clip0_3615_39700)">
<path d="M9 0.947368C6.86431 0.947368 4.81609 1.79577 3.30593 3.30593C1.79577 4.81609 0.947368 6.86431 0.947368 9C0.947368 11.1357 1.79577 13.1839 3.30593 14.6941C4.81609 16.2042 6.86431 17.0526 9 17.0526C10.0575 17.0526 11.1046 16.8443 12.0816 16.4397C13.0586 16.035 13.9463 15.4418 14.6941 14.6941C15.4418 13.9463 16.035 13.0586 16.4397 12.0816C16.8443 11.1046 17.0526 10.0575 17.0526 9C17.0526 6.86431 16.2042 4.81609 14.6941 3.30593C13.1839 1.79577 11.1357 0.947368 9 0.947368ZM9 0C11.3869 0 13.6761 0.948211 15.364 2.63604C17.0518 4.32387 18 6.61305 18 9C18 11.3869 17.0518 13.6761 15.364 15.364C13.6761 17.0518 11.3869 18 9 18C6.61305 18 4.32387 17.0518 2.63604 15.364C0.948211 13.6761 0 11.3869 0 9C0 6.61305 0.948211 4.32387 2.63604 2.63604C4.32387 0.948211 6.61305 0 9 0ZM8.52632 13.2632H9.47368V15.1579H8.52632V13.2632ZM9 2.84211C9.8794 2.84211 10.7228 3.19145 11.3446 3.81328C11.9664 4.43511 12.3158 5.27849 12.3158 6.1579C12.3158 7.01053 11.6526 7.57895 10.9516 8.22316L10.0705 9.07579C9.51158 9.71053 9.44526 10.9232 9.47368 11.34V11.3684H8.52632C8.52632 11.3211 8.43158 9.51158 9.35053 8.45053L10.3263 7.51263C10.8947 7.01053 11.3684 6.58421 11.3684 6.1579C11.3684 5.52975 11.1189 4.92733 10.6747 4.48317C10.2306 4.039 9.62814 3.78947 9 3.78947C8.37186 3.78947 7.76944 4.039 7.32527 4.48317C6.88111 4.92733 6.63158 5.52975 6.63158 6.1579H5.68421C5.68421 5.27849 6.03355 4.43511 6.65538 3.81328C7.27721 3.19145 8.1206 2.84211 9 2.84211Z" fill="#2D3748"/>
</g>
<defs>
<clipPath id="clip0_3615_39700">
<rect width="18" height="18" fill="white"/>
</clipPath>
</defs>
</svg>
