<svg width="24" height="24" viewBox="0 0 24 24" fill="none" xmlns="http://www.w3.org/2000/svg">
<g clip-path="url(#clip0_3780_485)">
<path d="M15.4394 4.4358C16.6755 3.10435 18.484 3.07661 19.4857 4.15471C20.4891 5.23467 20.4615 7.18746 19.2245 8.51891L17.135 10.7685C17.0139 10.8988 16.9461 11.0754 16.9464 11.2594C16.9467 11.4434 17.0152 11.6197 17.1367 11.7495C17.2582 11.8794 17.4228 11.9521 17.5943 11.9518C17.7659 11.9514 17.9302 11.878 18.0513 11.7477L20.1408 9.49808C21.7872 7.72374 21.9941 4.89163 20.402 3.17554C18.8073 1.45853 16.1721 1.68228 14.523 3.45663L10.3449 7.95674C8.69669 9.73108 8.48981 12.5632 10.0837 14.2784C10.1427 14.3466 10.214 14.4014 10.2933 14.4394C10.3725 14.4775 10.4581 14.4981 10.5449 14.4999C10.6317 14.5017 10.7179 14.4847 10.7985 14.45C10.879 14.4153 10.9523 14.3635 11.0138 14.2978C11.0753 14.2321 11.1238 14.1538 11.1565 14.0675C11.1891 13.9812 11.2053 13.8887 11.2039 13.7956C11.2025 13.7025 11.1837 13.6107 11.1485 13.5255C11.1133 13.4404 11.0625 13.3637 10.9991 13.3001C9.99661 12.2202 10.0233 10.2674 11.2603 8.93591L15.4394 4.4358Z" fill="#001E95"/>
<path d="M13.7379 9.70422C13.6168 9.57372 13.4523 9.50026 13.2807 9.5C13.1091 9.49974 12.9444 9.5727 12.8229 9.70283C12.7014 9.83296 12.633 10.0096 12.6328 10.1939C12.6325 10.3782 12.7004 10.555 12.8216 10.6855C13.825 11.7668 13.7974 13.7211 12.5604 15.0551L8.38055 19.5599C7.14443 20.893 5.33594 20.9208 4.33428 19.8413C3.33177 18.76 3.35849 16.8048 4.59547 15.4717L6.68498 13.2193C6.74664 13.1552 6.79578 13.0785 6.82955 12.9937C6.86332 12.909 6.88103 12.8179 6.88165 12.7257C6.88227 12.6335 6.86579 12.5421 6.83317 12.4568C6.80055 12.3715 6.75245 12.2941 6.69166 12.229C6.63088 12.1639 6.55863 12.1124 6.47913 12.0776C6.39964 12.0429 6.31448 12.0254 6.22865 12.0263C6.14281 12.0273 6.058 12.0466 5.97917 12.0831C5.90035 12.1196 5.82908 12.1726 5.76953 12.239L3.68002 14.4913C2.03272 16.2679 1.82584 19.1035 3.41969 20.8226C5.01441 22.5427 7.64957 22.3177 9.29773 20.5412L13.4767 16.0355C15.1232 14.2599 15.3301 11.4234 13.7379 9.70607" fill="#001E95"/>
</g>
<defs>
<clipPath id="clip0_3780_485">
<rect width="20" height="20" fill="white" transform="translate(2 2)"/>
</clipPath>
</defs>
</svg>
