<svg width="26" height="26" viewBox="0 0 26 26" fill="none" xmlns="http://www.w3.org/2000/svg">
<path d="M12.4645 1.96533C11.0447 3.52222 10.2795 5.56637 10.328 7.67287C10.3764 9.77938 11.2349 11.7862 12.7249 13.2761C14.2148 14.766 16.2217 15.6244 18.3282 15.6729C20.4348 15.7214 22.479 14.9562 24.0359 13.5364C24.1152 13.4614 24.2139 13.4101 24.3209 13.3882C24.4279 13.3664 24.5388 13.375 24.6411 13.413C24.8697 13.5 25.0178 13.7247 24.9983 13.9689C24.8392 15.897 24.2171 17.7583 23.1846 19.3946C22.1522 21.0308 20.74 22.3936 19.068 23.3672C17.3961 24.3409 15.5138 24.8965 13.5811 24.9869C11.6484 25.0773 9.72251 24.6998 7.96697 23.8865C6.21143 23.0732 4.67817 21.8482 3.49748 20.3155C2.31679 18.7827 1.52357 16.9877 1.18522 15.0828C0.846869 13.1778 0.97339 11.2194 1.55403 9.37386C2.13467 7.52831 3.15227 5.8502 4.52036 4.48214C6.53078 2.4658 9.19397 1.23185 12.0321 1.00172C12.151 0.992249 12.2698 1.02205 12.3702 1.08656C12.4706 1.15107 12.5471 1.24672 12.5879 1.35885C12.6658 1.56664 12.6139 1.8004 12.4645 1.96403V1.96533Z" stroke="black" stroke-linejoin="round"/>
</svg>
