<svg width="18" height="18" viewBox="0 0 18 18" fill="none" xmlns="http://www.w3.org/2000/svg">
<g clip-path="url(#clip0_3615_39719)">
<path d="M9.67675 0.75H2.53383C1.54865 0.75 0.75 1.54865 0.75 2.53383V9.67675C0.75 10.6619 1.54865 11.4606 2.53383 11.4606H9.67675C10.6619 11.4606 11.4606 10.6619 11.4606 9.67675V2.53383C11.4606 1.54865 10.6619 0.75 9.67675 0.75Z" stroke="#2D3748" stroke-linecap="round" stroke-linejoin="round"/>
<path d="M11.4613 17.2498C14.6587 17.2498 17.2507 14.6577 17.2507 11.4603C17.2507 8.26291 14.6587 5.6709 11.4613 5.6709C8.26389 5.6709 5.67188 8.26291 5.67188 11.4603C5.67188 14.6577 8.26389 17.2498 11.4613 17.2498Z" stroke="#2D3748" stroke-linecap="round" stroke-linejoin="round"/>
</g>
<defs>
<clipPath id="clip0_3615_39719">
<rect width="18" height="18" fill="white"/>
</clipPath>
</defs>
</svg>
