<svg width="24" height="24" viewBox="0 0 24 24" fill="none" xmlns="http://www.w3.org/2000/svg">
<path d="M16.2 3.19995H18.4C18.9835 3.19995 19.5431 3.43174 19.9556 3.84432C20.3682 4.2569 20.6 4.81647 20.6 5.39995V20.7999C20.6 21.3834 20.3682 21.943 19.9556 22.3556C19.5431 22.7682 18.9835 22.9999 18.4 22.9999H5.2C4.61652 22.9999 4.05695 22.7682 3.64436 22.3556C3.23178 21.943 3 21.3834 3 20.7999V5.39995C3 4.81647 3.23178 4.2569 3.64436 3.84432C4.05695 3.43174 4.61652 3.19995 5.2 3.19995H7.4" stroke="currentColor" stroke-linecap="round" stroke-linejoin="round"/>
<path d="M15.1004 1H8.50039C7.89288 1 7.40039 1.49249 7.40039 2.1V4.3C7.40039 4.90751 7.89288 5.4 8.50039 5.4H15.1004C15.7079 5.4 16.2004 4.90751 16.2004 4.3V2.1C16.2004 1.49249 15.7079 1 15.1004 1Z" stroke="currentColor" stroke-linecap="round" stroke-linejoin="round"/>
</svg>
