<svg width="24" height="24" viewBox="0 0 24 24" fill="none" xmlns="http://www.w3.org/2000/svg">
<path d="M10.1997 4.01046L1.28218 18.8513C1.09832 19.1687 1.00104 19.5286 1.00001 19.8951C0.998979 20.2616 1.09424 20.6221 1.27631 20.9405C1.45838 21.2589 1.72092 21.5243 2.0378 21.7102C2.35469 21.896 2.71487 21.996 3.08252 22H20.9175C21.2851 21.996 21.6453 21.896 21.9622 21.7102C22.2791 21.5243 22.5416 21.2589 22.7237 20.9405C22.9058 20.6221 23.001 20.2616 23 19.8951C22.999 19.5286 22.9017 19.1687 22.7178 18.8513L13.8003 4.01046C13.6127 3.702 13.3484 3.44697 13.033 3.26998C12.7177 3.09298 12.3619 3 12 3C11.6381 3 11.2823 3.09298 10.967 3.26998C10.6516 3.44697 10.3873 3.702 10.1997 4.01046Z" stroke="#EB2D53" stroke-linecap="round" stroke-linejoin="round"/>
<path d="M12 9V13" stroke="#EB2D53" stroke-linecap="round" stroke-linejoin="round"/>
<path d="M12 17H12.01" stroke="#EB2D53" stroke-width="1.25" stroke-linecap="round" stroke-linejoin="round"/>
</svg>
