<svg width="36" height="52" viewBox="0 0 36 52" fill="none" xmlns="http://www.w3.org/2000/svg">
<path d="M18.1081 43.2862L18.2095 51.0882L17.5643 51.0966L17.4629 43.2946L18.1081 43.2862Z" fill="#091F5B"/>
<path d="M0.0839944 34.0263L0 0.4104L0.645237 0.408788L0.729231 34.0247C0.752498 43.3326 8.31714 50.8595 17.625 50.8363C26.9328 50.8129 34.4592 43.2483 34.4359 33.9405L34.3519 0.324567L34.9972 0.322955L35.0812 33.9389C35.1053 43.603 27.2907 51.4572 17.6266 51.4815C7.96239 51.5057 0.108151 43.6906 0.0839944 34.0263Z" fill="#091F5B"/>
<path d="M34.7717 25.8811L17.6798 43.0347L17.6803 42.208L34.7722 25.0538L34.7717 25.8811ZM34.7711 28.6543L23.3844 40.074L21.4182 41.2238L34.7709 27.8269L34.7711 28.6543ZM34.773 23.108L17.6804 40.2615L17.6809 39.4342L34.7728 22.28L34.773 23.108ZM34.7736 20.3342L17.6811 37.4878L17.6821 36.6604L34.7741 19.5062L34.7736 20.3342ZM34.7698 31.4237L29.9791 36.2207L28.0116 37.3706L34.7703 30.5982L34.7698 31.4237ZM34.7749 17.5604L17.6823 34.714L17.6821 33.886L34.7753 16.7324L34.7749 17.5604ZM34.7759 14.4489L34.7755 14.7885L17.6836 31.9402L17.6834 31.1128L33.705 15.0376L34.7714 14.4149C34.773 14.4262 34.7759 14.4373 34.7759 14.4489ZM17.6842 29.1664L17.6847 28.3384L28.0619 17.9301L30.0376 16.7752L17.6842 29.1664ZM17.6861 26.3926L17.6878 25.564L21.439 21.801L23.4146 20.6461L17.6861 26.3926Z" fill="#091F5B"/>
<path d="M34.5207 14.1933C34.5647 14.1932 34.6084 14.205 34.6462 14.227C34.7255 14.2725 34.7744 14.3567 34.7747 14.4479L34.7683 33.6252C34.7686 33.7149 34.7206 33.7991 34.6429 33.8448L17.7501 43.7178C17.7117 43.7406 17.6679 43.752 17.6229 43.7521C17.5783 43.7522 17.5347 43.741 17.4968 43.7191C17.4177 43.6737 17.3689 43.5892 17.3689 43.4988L17.3746 24.3202C17.3751 24.231 17.4233 24.1466 17.5007 24.1013L34.3929 14.2283C34.4317 14.2058 34.476 14.1934 34.5207 14.1933ZM17.8816 24.4658L17.8757 43.0577L34.262 33.4803L34.2679 14.8889L17.8816 24.4658Z" fill="#091F5B"/>
<path d="M17.7148 4.61325C17.7592 4.61314 17.8029 4.62496 17.8409 4.64696L34.6431 14.2493C34.7216 14.294 34.7706 14.3782 34.7716 14.4689C34.7718 14.558 34.7238 14.6426 34.6461 14.6879L17.6638 24.5697C17.6249 24.592 17.5802 24.6039 17.5354 24.604C17.491 24.6041 17.4467 24.5923 17.408 24.5703L0.606488 14.9686C0.528268 14.9237 0.479183 14.8393 0.478651 14.749C0.478165 14.6593 0.526474 14.5751 0.604747 14.5294L17.5864 4.64822C17.6252 4.62576 17.6697 4.61339 17.7148 4.61325ZM1.24108 14.7465L17.534 24.057L34.0085 14.4714L17.7168 5.16021L1.24108 14.7465Z" fill="#091F5B"/>
<path d="M13.017 26.7789L13.018 27.1405L5.99483 31.245L6.05919 31.2821L5.72019 31.2829L5.71904 30.8198L12.6308 26.7798L13.017 26.7789Z" fill="#091F5B"/>
<path d="M0.605143 14.4633C0.650288 14.4633 0.694381 14.4751 0.733136 14.497L17.7401 24.1036C17.8199 24.1488 17.8696 24.2331 17.8692 24.3232L17.863 43.5276C17.8629 43.6177 17.8135 43.7021 17.7344 43.7472C17.6959 43.7693 17.6514 43.7808 17.6059 43.7809C17.5606 43.781 17.5159 43.7698 17.4773 43.7478L0.470921 34.1407C0.390963 34.0956 0.341272 34.0112 0.341197 33.9205L0.347449 14.7167C0.347639 14.6267 0.397513 14.5428 0.476693 14.4977C0.515805 14.4753 0.560317 14.4634 0.605143 14.4633ZM0.856868 33.7743L17.3471 43.0897L17.3542 24.4706L0.862708 15.1552L0.856868 33.7743Z" fill="#091F5B"/>
<path d="M5.36339 22.2743C5.38402 22.2743 5.40422 22.2796 5.42203 22.2899L13.2303 26.772C13.267 26.793 13.29 26.8325 13.2898 26.8745L13.287 35.8342C13.2868 35.8761 13.2643 35.9153 13.228 35.9364C13.2103 35.9466 13.1897 35.9516 13.1688 35.9517C13.1481 35.9517 13.1278 35.9468 13.1102 35.9367L5.3019 31.4546C5.2651 31.4336 5.24251 31.3938 5.24241 31.3514L5.24523 22.3924C5.24536 22.3505 5.2679 22.3113 5.3042 22.2902C5.32232 22.2797 5.34268 22.2744 5.36339 22.2743ZM5.77175 31.1157L12.7578 35.126L12.7611 27.1109L5.7744 23.1006L5.77175 31.1157Z" fill="#091F5B"/>
<path d="M12.9313 35.0082L12.5894 35.3512L12.07 35.0456L12.9406 34.172L12.9313 35.0082ZM12.9615 32.206L10.8477 34.3272L10.3271 34.0216L12.9701 31.3692L12.9615 32.206ZM12.9917 29.4025L9.10413 33.3032L8.58478 32.9983L13.0003 28.5663L12.9917 29.4025ZM7.36181 32.2792L6.8412 31.9737L10.3868 28.416L12.2135 27.4102L7.36181 32.2792ZM5.61887 31.2559L5.43019 31.1448L6.09405 30.7789L5.61887 31.2559Z" fill="#091F5B"/>
<path d="M18.0544 0.818578L18.0642 4.74986L17.419 4.75147L17.4092 0.82019L18.0544 0.818578Z" fill="#091F5B"/>
<path d="M34.9245 0.645313L17.5428 0.93386L17.5333 0.934513L0.0729013 0.732395L0.0801107 0.0871362L17.5355 0.288637L34.9141 9.8465e-05L34.9245 0.645313Z" fill="#091F5B"/>
</svg>
