<svg width="266" height="80" viewBox="0 0 266 80" fill="none" xmlns="http://www.w3.org/2000/svg">
<path d="M70.77 16.1953H73.33V26.1353L80.85 16.1953H83.27V30.1953H80.71V20.2753L73.19 30.1953H70.77V16.1953ZM94.6754 26.9553H87.6754L86.2954 30.1953H83.6154L89.9154 16.1953H92.4754L98.7953 30.1953H96.0754L94.6754 26.9553ZM93.8154 24.9153L91.1754 18.7953L88.5554 24.9153H93.8154ZM105.387 30.3953C103.974 30.3953 102.694 30.0886 101.547 29.4753C100.414 28.8486 99.5202 27.9886 98.8669 26.8953C98.2269 25.802 97.9069 24.5686 97.9069 23.1953C97.9069 21.822 98.2336 20.5886 98.8869 19.4953C99.5402 18.402 100.434 17.5486 101.567 16.9353C102.714 16.3086 103.994 15.9953 105.407 15.9953C106.554 15.9953 107.6 16.1953 108.547 16.5953C109.494 16.9953 110.294 17.5753 110.947 18.3353L109.267 19.9153C108.254 18.822 107.007 18.2753 105.527 18.2753C104.567 18.2753 103.707 18.4886 102.947 18.9153C102.187 19.3286 101.594 19.9086 101.167 20.6553C100.74 21.402 100.527 22.2486 100.527 23.1953C100.527 24.142 100.74 24.9886 101.167 25.7353C101.594 26.482 102.187 27.0686 102.947 27.4953C103.707 27.9086 104.567 28.1153 105.527 28.1153C107.007 28.1153 108.254 27.562 109.267 26.4553L110.947 28.0553C110.294 28.8153 109.487 29.3953 108.527 29.7953C107.58 30.1953 106.534 30.3953 105.387 30.3953ZM129.588 27.9953V33.2753H127.188V30.1953H115.308V16.1953H117.868V27.9953H124.928V16.1953H127.508V27.9953H129.588ZM143.028 30.1953L143.008 20.9153L138.408 28.5953H137.248L132.648 21.0353V30.1953H130.188V16.1953H132.328L137.868 25.4553L143.348 16.1953H145.468L145.508 30.1953H143.028Z" fill="#091F5B"/>
<path d="M75.2863 38.6266V44.2266H74.2863V43.5146C73.9077 44.0426 73.321 44.3066 72.5263 44.3066C71.865 44.3066 71.345 44.1012 70.9663 43.6906C70.5877 43.2746 70.3983 42.6879 70.3983 41.9306V38.6266H71.4383V41.8906C71.4383 42.3866 71.5557 42.7626 71.7903 43.0186C72.0303 43.2692 72.3583 43.3946 72.7743 43.3946C73.2223 43.3946 73.5797 43.2612 73.8463 42.9946C74.113 42.7226 74.2463 42.3199 74.2463 41.7866V38.6266H75.2863ZM76.7101 39.9546H77.7101V41.6906H79.8621V39.9546H80.8621V44.2266H79.8621V42.5386H77.7101V44.2266H76.7101V39.9546ZM87.8503 42.0826C87.8503 42.7439 87.6289 43.2639 87.1863 43.6426C86.7489 44.0212 86.1223 44.2372 85.3063 44.2906V45.7786H84.3623V44.2986C83.5463 44.2452 82.9196 44.0292 82.4823 43.6506C82.0449 43.2719 81.8263 42.7492 81.8263 42.0826C81.8263 41.4212 82.0449 40.9066 82.4823 40.5386C82.9196 40.1652 83.5463 39.9519 84.3623 39.8986V38.2906H85.3063V39.8986C86.1223 39.9519 86.7489 40.1652 87.1863 40.5386C87.6289 40.9119 87.8503 41.4266 87.8503 42.0826ZM82.8103 42.0826C82.8103 42.4932 82.9356 42.8132 83.1863 43.0426C83.4423 43.2719 83.8343 43.4106 84.3623 43.4586V40.7466C83.8343 40.7892 83.4423 40.9226 83.1863 41.1466C82.9356 41.3706 82.8103 41.6826 82.8103 42.0826ZM85.3063 43.4586C86.3516 43.3626 86.8743 42.9039 86.8743 42.0826C86.8743 41.6772 86.7436 41.3652 86.4823 41.1466C86.2263 40.9226 85.8343 40.7892 85.3063 40.7466V43.4586ZM90.7235 44.2826C90.2915 44.2826 89.9021 44.1892 89.5555 44.0026C89.2088 43.8159 88.9368 43.5572 88.7395 43.2266C88.5475 42.8906 88.4515 42.5119 88.4515 42.0906C88.4515 41.6692 88.5475 41.2932 88.7395 40.9626C88.9368 40.6319 89.2088 40.3732 89.5555 40.1866C89.9021 39.9999 90.2915 39.9066 90.7235 39.9066C91.1608 39.9066 91.5528 39.9999 91.8995 40.1866C92.2461 40.3732 92.5155 40.6319 92.7075 40.9626C92.9048 41.2932 93.0035 41.6692 93.0035 42.0906C93.0035 42.5119 92.9048 42.8906 92.7075 43.2266C92.5155 43.5572 92.2461 43.8159 91.8995 44.0026C91.5528 44.1892 91.1608 44.2826 90.7235 44.2826ZM90.7235 43.4266C91.0915 43.4266 91.3955 43.3039 91.6355 43.0586C91.8755 42.8132 91.9955 42.4906 91.9955 42.0906C91.9955 41.6906 91.8755 41.3679 91.6355 41.1226C91.3955 40.8772 91.0915 40.7546 90.7235 40.7546C90.3555 40.7546 90.0515 40.8772 89.8115 41.1226C89.5768 41.3679 89.4595 41.6906 89.4595 42.0906C89.4595 42.4906 89.5768 42.8132 89.8115 43.0586C90.0515 43.3039 90.3555 43.4266 90.7235 43.4266ZM96.1033 39.9066C96.546 39.9066 96.9327 39.9972 97.2633 40.1786C97.5993 40.3599 97.858 40.6159 98.0393 40.9466C98.226 41.2772 98.3193 41.6612 98.3193 42.0986C98.3193 42.5306 98.2313 42.9119 98.0553 43.2426C97.8793 43.5732 97.6313 43.8292 97.3113 44.0106C96.9967 44.1919 96.6313 44.2826 96.2153 44.2826C95.6233 44.2826 95.1593 44.0932 94.8233 43.7146V45.7786H93.8153V42.1066C93.8153 41.6746 93.9113 41.2932 94.1033 40.9626C94.2953 40.6266 94.562 40.3679 94.9033 40.1866C95.25 39.9999 95.65 39.9066 96.1033 39.9066ZM96.0633 43.4346C96.4367 43.4346 96.7407 43.3119 96.9753 43.0666C97.21 42.8159 97.3273 42.4932 97.3273 42.0986C97.3273 41.7039 97.21 41.3812 96.9753 41.1306C96.7407 40.8799 96.4367 40.7546 96.0633 40.7546C95.6847 40.7546 95.3807 40.8772 95.1513 41.1226C94.922 41.3679 94.8073 41.6906 94.8073 42.0906C94.8073 42.4906 94.922 42.8159 95.1513 43.0666C95.386 43.3119 95.69 43.4346 96.0633 43.4346ZM103.519 44.2266V41.3946L102.079 43.7786H101.647L100.231 41.3866V44.2266H99.3195V39.9546H100.367L101.887 42.6266L103.479 39.9546H104.415L104.423 44.2266H103.519ZM109.925 39.9546V44.2266H108.973V43.6746C108.807 43.8772 108.602 44.0292 108.357 44.1306C108.117 44.2319 107.85 44.2826 107.557 44.2826C107.141 44.2826 106.767 44.1919 106.437 44.0106C106.111 43.8292 105.855 43.5732 105.669 43.2426C105.487 42.9119 105.397 42.5279 105.397 42.0906C105.397 41.6532 105.487 41.2719 105.669 40.9466C105.855 40.6159 106.111 40.3599 106.437 40.1786C106.767 39.9972 107.141 39.9066 107.557 39.9066C107.834 39.9066 108.087 39.9546 108.317 40.0506C108.551 40.1466 108.754 40.2879 108.925 40.4746V39.9546H109.925ZM107.669 43.4266C108.037 43.4266 108.341 43.3039 108.581 43.0586C108.821 42.8132 108.941 42.4906 108.941 42.0906C108.941 41.6906 108.821 41.3679 108.581 41.1226C108.341 40.8772 108.037 40.7546 107.669 40.7546C107.301 40.7546 106.997 40.8772 106.757 41.1226C106.522 41.3679 106.405 41.6906 106.405 42.0906C106.405 42.4906 106.522 42.8132 106.757 43.0586C106.997 43.3039 107.301 43.4266 107.669 43.4266ZM115.937 43.3786V45.2106H115.001V44.2266H111.249V39.9546H112.249V43.3786H114.289V39.9546H115.289V43.3786H115.937ZM120.875 39.9546V44.2266H119.923V43.6826C119.763 43.8746 119.563 44.0239 119.323 44.1306C119.089 44.2319 118.833 44.2826 118.555 44.2826C117.985 44.2826 117.534 44.1252 117.203 43.8106C116.873 43.4906 116.707 43.0186 116.707 42.3946V39.9546H117.707V42.2586C117.707 42.6426 117.793 42.9306 117.963 43.1226C118.139 43.3092 118.39 43.4026 118.715 43.4026C119.067 43.4026 119.347 43.2932 119.555 43.0746C119.769 42.8506 119.875 42.5306 119.875 42.1146V39.9546H120.875ZM124.13 44.2826C123.698 44.2826 123.308 44.1892 122.962 44.0026C122.615 43.8159 122.343 43.5572 122.146 43.2266C121.954 42.8906 121.858 42.5119 121.858 42.0906C121.858 41.6692 121.954 41.2932 122.146 40.9626C122.343 40.6319 122.615 40.3732 122.962 40.1866C123.308 39.9999 123.698 39.9066 124.13 39.9066C124.567 39.9066 124.959 39.9999 125.306 40.1866C125.652 40.3732 125.922 40.6319 126.114 40.9626C126.311 41.2932 126.41 41.6692 126.41 42.0906C126.41 42.5119 126.311 42.8906 126.114 43.2266C125.922 43.5572 125.652 43.8159 125.306 44.0026C124.959 44.1892 124.567 44.2826 124.13 44.2826ZM124.13 43.4266C124.498 43.4266 124.802 43.3039 125.042 43.0586C125.282 42.8132 125.402 42.4906 125.402 42.0906C125.402 41.6906 125.282 41.3679 125.042 41.1226C124.802 40.8772 124.498 40.7546 124.13 40.7546C123.762 40.7546 123.458 40.8772 123.218 41.1226C122.983 41.3679 122.866 41.6906 122.866 42.0906C122.866 42.4906 122.983 42.8132 123.218 43.0586C123.458 43.3039 123.762 43.4266 124.13 43.4266ZM127.398 39.9546H128.398V41.6906H130.55V39.9546H131.55V44.2266H130.55V42.5386H128.398V44.2266H127.398V39.9546ZM132.89 39.9546H133.89V41.6906H136.042V39.9546H137.042V44.2266H136.042V42.5386H133.89V44.2266H132.89V39.9546ZM140.286 44.2826C139.854 44.2826 139.465 44.1892 139.118 44.0026C138.771 43.8159 138.499 43.5572 138.302 43.2266C138.11 42.8906 138.014 42.5119 138.014 42.0906C138.014 41.6692 138.11 41.2932 138.302 40.9626C138.499 40.6319 138.771 40.3732 139.118 40.1866C139.465 39.9999 139.854 39.9066 140.286 39.9066C140.723 39.9066 141.115 39.9999 141.462 40.1866C141.809 40.3732 142.078 40.6319 142.27 40.9626C142.467 41.2932 142.566 41.6692 142.566 42.0906C142.566 42.5119 142.467 42.8906 142.27 43.2266C142.078 43.5572 141.809 43.8159 141.462 44.0026C141.115 44.1892 140.723 44.2826 140.286 44.2826ZM140.286 43.4266C140.654 43.4266 140.958 43.3039 141.198 43.0586C141.438 42.8132 141.558 42.4906 141.558 42.0906C141.558 41.6906 141.438 41.3679 141.198 41.1226C140.958 40.8772 140.654 40.7546 140.286 40.7546C139.918 40.7546 139.614 40.8772 139.374 41.1226C139.139 41.3679 139.022 41.6906 139.022 42.0906C139.022 42.4906 139.139 42.8132 139.374 43.0586C139.614 43.3039 139.918 43.4266 140.286 43.4266ZM143.4 41.5866H145.6V42.4186H143.4V41.5866ZM150.948 39.9546V44.2266H149.996V43.6746C149.831 43.8772 149.626 44.0292 149.38 44.1306C149.14 44.2319 148.874 44.2826 148.58 44.2826C148.164 44.2826 147.791 44.1919 147.46 44.0106C147.135 43.8292 146.879 43.5732 146.692 43.2426C146.511 42.9119 146.42 42.5279 146.42 42.0906C146.42 41.6532 146.511 41.2719 146.692 40.9466C146.879 40.6159 147.135 40.3599 147.46 40.1786C147.791 39.9972 148.164 39.9066 148.58 39.9066C148.858 39.9066 149.111 39.9546 149.34 40.0506C149.575 40.1466 149.778 40.2879 149.948 40.4746V39.9546H150.948ZM148.692 43.4266C149.06 43.4266 149.364 43.3039 149.604 43.0586C149.844 42.8132 149.964 42.4906 149.964 42.0906C149.964 41.6906 149.844 41.3679 149.604 41.1226C149.364 40.8772 149.06 40.7546 148.692 40.7546C148.324 40.7546 148.02 40.8772 147.78 41.1226C147.546 41.3679 147.428 41.6906 147.428 42.0906C147.428 42.4906 147.546 42.8132 147.78 43.0586C148.02 43.3039 148.324 43.4266 148.692 43.4266ZM152.273 39.9546H153.273V41.6906H155.425V39.9546H156.425V44.2266H155.425V42.5386H153.273V44.2266H152.273V39.9546ZM161.925 39.9546V44.2266H160.973V43.6746C160.807 43.8772 160.602 44.0292 160.357 44.1306C160.117 44.2319 159.85 44.2826 159.557 44.2826C159.141 44.2826 158.767 44.1919 158.437 44.0106C158.111 43.8292 157.855 43.5732 157.669 43.2426C157.487 42.9119 157.397 42.5279 157.397 42.0906C157.397 41.6532 157.487 41.2719 157.669 40.9466C157.855 40.6159 158.111 40.3599 158.437 40.1786C158.767 39.9972 159.141 39.9066 159.557 39.9066C159.834 39.9066 160.087 39.9546 160.317 40.0506C160.551 40.1466 160.754 40.2879 160.925 40.4746V39.9546H161.925ZM159.669 43.4266C160.037 43.4266 160.341 43.3039 160.581 43.0586C160.821 42.8132 160.941 42.4906 160.941 42.0906C160.941 41.6906 160.821 41.3679 160.581 41.1226C160.341 40.8772 160.037 40.7546 159.669 40.7546C159.301 40.7546 158.997 40.8772 158.757 41.1226C158.522 41.3679 158.405 41.6906 158.405 42.0906C158.405 42.4906 158.522 42.8132 158.757 43.0586C158.997 43.3039 159.301 43.4266 159.669 43.4266ZM167.121 39.9546V44.2266H166.121V40.8026H164.521L164.481 41.6506C164.454 42.2159 164.401 42.6906 164.321 43.0746C164.246 43.4532 164.116 43.7546 163.929 43.9786C163.748 44.1972 163.497 44.3066 163.177 44.3066C163.028 44.3066 162.844 44.2772 162.625 44.2186L162.673 43.3786C162.748 43.3946 162.812 43.4026 162.865 43.4026C163.068 43.4026 163.22 43.3226 163.321 43.1626C163.422 42.9972 163.486 42.8026 163.513 42.5786C163.545 42.3492 163.572 42.0239 163.593 41.6026L163.665 39.9546H167.121ZM172.516 39.9546V44.2266H171.564V43.6826C171.404 43.8746 171.204 44.0239 170.964 44.1306C170.729 44.2319 170.473 44.2826 170.196 44.2826C169.625 44.2826 169.175 44.1252 168.844 43.8106C168.513 43.4906 168.348 43.0186 168.348 42.3946V39.9546H169.348V42.2586C169.348 42.6426 169.433 42.9306 169.604 43.1226C169.78 43.3092 170.031 43.4026 170.356 43.4026C170.708 43.4026 170.988 43.2932 171.196 43.0746C171.409 42.8506 171.516 42.5306 171.516 42.1146V39.9546H172.516ZM179.258 39.9066C179.797 39.9066 180.224 40.0639 180.538 40.3786C180.853 40.6879 181.01 41.1546 181.01 41.7786V44.2266H180.01V41.9066C180.01 41.5332 179.928 41.2532 179.762 41.0666C179.597 40.8746 179.36 40.7786 179.05 40.7786C178.714 40.7786 178.445 40.8906 178.242 41.1146C178.04 41.3332 177.938 41.6479 177.938 42.0586V44.2266H176.938V41.9066C176.938 41.5332 176.856 41.2532 176.69 41.0666C176.525 40.8746 176.288 40.7786 175.978 40.7786C175.637 40.7786 175.365 40.8879 175.162 41.1066C174.965 41.3252 174.866 41.6426 174.866 42.0586V44.2266H173.866V39.9546H174.818V40.4986C174.978 40.3066 175.178 40.1599 175.418 40.0586C175.658 39.9572 175.925 39.9066 176.218 39.9066C176.538 39.9066 176.821 39.9679 177.066 40.0906C177.317 40.2079 177.514 40.3839 177.658 40.6186C177.834 40.3946 178.061 40.2212 178.338 40.0986C178.616 39.9706 178.922 39.9066 179.258 39.9066ZM186.289 39.9546V44.2266H185.337V43.6826C185.177 43.8746 184.977 44.0239 184.737 44.1306C184.503 44.2319 184.247 44.2826 183.969 44.2826C183.399 44.2826 182.948 44.1252 182.617 43.8106C182.287 43.4906 182.121 43.0186 182.121 42.3946V39.9546H183.121V42.2586C183.121 42.6426 183.207 42.9306 183.377 43.1226C183.553 43.3092 183.804 43.4026 184.129 43.4026C184.481 43.4026 184.761 43.2932 184.969 43.0746C185.183 42.8506 185.289 42.5306 185.289 42.1146V39.9546H186.289ZM191.264 39.9546V44.2266H190.264V42.5706C189.853 42.7679 189.424 42.8666 188.976 42.8666C188.426 42.8666 188.005 42.7412 187.712 42.4906C187.418 42.2346 187.272 41.8452 187.272 41.3226V39.9546H188.272V41.2586C188.272 41.5306 188.352 41.7332 188.512 41.8666C188.672 41.9999 188.898 42.0666 189.192 42.0666C189.565 42.0666 189.922 41.9866 190.264 41.8266V39.9546H191.264ZM194.625 43.4346C195.089 43.4346 195.475 43.2799 195.785 42.9706L196.313 43.5866C196.126 43.8159 195.886 43.9892 195.593 44.1066C195.299 44.2239 194.969 44.2826 194.601 44.2826C194.131 44.2826 193.718 44.1892 193.361 44.0026C193.003 43.8159 192.726 43.5572 192.529 43.2266C192.337 42.8906 192.241 42.5119 192.241 42.0906C192.241 41.6746 192.334 41.3012 192.521 40.9706C192.713 40.6346 192.974 40.3732 193.305 40.1866C193.641 39.9999 194.019 39.9066 194.441 39.9066C194.841 39.9066 195.203 39.9946 195.529 40.1706C195.859 40.3412 196.121 40.5892 196.313 40.9146C196.505 41.2346 196.601 41.6106 196.601 42.0426L193.329 42.6826C193.43 42.9279 193.593 43.1146 193.817 43.2426C194.041 43.3706 194.31 43.4346 194.625 43.4346ZM194.441 40.7066C194.073 40.7066 193.774 40.8266 193.545 41.0666C193.321 41.3066 193.209 41.6292 193.209 42.0346V42.0426L195.625 41.5786C195.555 41.3172 195.414 41.1066 195.201 40.9466C194.993 40.7866 194.739 40.7066 194.441 40.7066ZM199.521 44.2826C199.079 44.2826 198.681 44.1892 198.329 44.0026C197.977 43.8159 197.703 43.5572 197.505 43.2266C197.308 42.8906 197.209 42.5119 197.209 42.0906C197.209 41.6692 197.308 41.2932 197.505 40.9626C197.703 40.6319 197.975 40.3732 198.321 40.1866C198.673 39.9999 199.073 39.9066 199.521 39.9066C199.943 39.9066 200.311 39.9919 200.625 40.1626C200.945 40.3332 201.185 40.5786 201.345 40.8986L200.577 41.3466C200.455 41.1492 200.3 41.0026 200.113 40.9066C199.932 40.8052 199.732 40.7546 199.513 40.7546C199.14 40.7546 198.831 40.8772 198.585 41.1226C198.34 41.3626 198.217 41.6852 198.217 42.0906C198.217 42.4959 198.337 42.8212 198.577 43.0666C198.823 43.3066 199.135 43.4266 199.513 43.4266C199.732 43.4266 199.932 43.3786 200.113 43.2826C200.3 43.1812 200.455 43.0319 200.577 42.8346L201.345 43.2826C201.18 43.6026 200.937 43.8506 200.617 44.0266C200.303 44.1972 199.937 44.2826 199.521 44.2826ZM204.002 42.5146H203.226V44.2266H202.226V39.9546H203.226V41.6826H204.026L205.29 39.9546H206.362L204.81 42.0106L206.466 44.2266H205.29L204.002 42.5146ZM211.19 39.9546V44.2266H210.238V43.6746C210.073 43.8772 209.868 44.0292 209.622 44.1306C209.382 44.2319 209.116 44.2826 208.822 44.2826C208.406 44.2826 208.033 44.1919 207.702 44.0106C207.377 43.8292 207.121 43.5732 206.934 43.2426C206.753 42.9119 206.662 42.5279 206.662 42.0906C206.662 41.6532 206.753 41.2719 206.934 40.9466C207.121 40.6159 207.377 40.3599 207.702 40.1786C208.033 39.9972 208.406 39.9066 208.822 39.9066C209.1 39.9066 209.353 39.9546 209.582 40.0506C209.817 40.1466 210.02 40.2879 210.19 40.4746V39.9546H211.19ZM208.934 43.4266C209.302 43.4266 209.606 43.3039 209.846 43.0586C210.086 42.8132 210.206 42.4906 210.206 42.0906C210.206 41.6906 210.086 41.3679 209.846 41.1226C209.606 40.8772 209.302 40.7546 208.934 40.7546C208.566 40.7546 208.262 40.8772 208.022 41.1226C207.788 41.3679 207.67 41.6906 207.67 42.0906C207.67 42.4906 207.788 42.8132 208.022 43.0586C208.262 43.3039 208.566 43.4266 208.934 43.4266ZM216.123 39.9546V44.2266H215.227V42.9386H214.099L213.227 44.2266H212.155L213.163 42.8026C212.853 42.6959 212.616 42.5332 212.451 42.3146C212.291 42.0906 212.211 41.8159 212.211 41.4906C212.211 40.9999 212.384 40.6212 212.731 40.3546C213.077 40.0879 213.555 39.9546 214.163 39.9546H216.123ZM214.195 40.7946C213.549 40.7946 213.227 41.0372 213.227 41.5226C213.227 42.0026 213.539 42.2426 214.163 42.2426H215.227V40.7946H214.195ZM221.623 44.2826C221.18 44.2826 220.783 44.1892 220.431 44.0026C220.079 43.8159 219.804 43.5572 219.607 43.2266C219.409 42.8906 219.311 42.5119 219.311 42.0906C219.311 41.6692 219.409 41.2932 219.607 40.9626C219.804 40.6319 220.076 40.3732 220.423 40.1866C220.775 39.9999 221.175 39.9066 221.623 39.9066C222.044 39.9066 222.412 39.9919 222.727 40.1626C223.047 40.3332 223.287 40.5786 223.447 40.8986L222.679 41.3466C222.556 41.1492 222.401 41.0026 222.215 40.9066C222.033 40.8052 221.833 40.7546 221.615 40.7546C221.241 40.7546 220.932 40.8772 220.687 41.1226C220.441 41.3626 220.319 41.6852 220.319 42.0906C220.319 42.4959 220.439 42.8212 220.679 43.0666C220.924 43.3066 221.236 43.4266 221.615 43.4266C221.833 43.4266 222.033 43.3786 222.215 43.2826C222.401 43.1812 222.556 43.0319 222.679 42.8346L223.447 43.2826C223.281 43.6026 223.039 43.8506 222.719 44.0266C222.404 44.1972 222.039 44.2826 221.623 44.2826ZM228.375 39.9546V44.2266H227.423V43.6826C227.263 43.8746 227.063 44.0239 226.823 44.1306C226.589 44.2319 226.333 44.2826 226.055 44.2826C225.485 44.2826 225.034 44.1252 224.703 43.8106C224.373 43.4906 224.207 43.0186 224.207 42.3946V39.9546H225.207V42.2586C225.207 42.6426 225.293 42.9306 225.463 43.1226C225.639 43.3092 225.89 43.4026 226.215 43.4026C226.567 43.4026 226.847 43.2932 227.055 43.0746C227.269 42.8506 227.375 42.5306 227.375 42.1146V39.9546H228.375ZM231.67 44.2826C231.227 44.2826 230.83 44.1892 230.478 44.0026C230.126 43.8159 229.851 43.5572 229.654 43.2266C229.456 42.8906 229.358 42.5119 229.358 42.0906C229.358 41.6692 229.456 41.2932 229.654 40.9626C229.851 40.6319 230.123 40.3732 230.47 40.1866C230.822 39.9999 231.222 39.9066 231.67 39.9066C232.091 39.9066 232.459 39.9919 232.774 40.1626C233.094 40.3332 233.334 40.5786 233.494 40.8986L232.726 41.3466C232.603 41.1492 232.448 41.0026 232.262 40.9066C232.08 40.8052 231.88 40.7546 231.662 40.7546C231.288 40.7546 230.979 40.8772 230.734 41.1226C230.488 41.3626 230.366 41.6852 230.366 42.0906C230.366 42.4959 230.486 42.8212 230.726 43.0666C230.971 43.3066 231.283 43.4266 231.662 43.4266C231.88 43.4266 232.08 43.3786 232.262 43.2826C232.448 43.1812 232.603 43.0319 232.726 42.8346L233.494 43.2826C233.328 43.6026 233.086 43.8506 232.766 44.0266C232.451 44.1972 232.086 44.2826 231.67 44.2826ZM239.766 39.9066C240.305 39.9066 240.731 40.0639 241.046 40.3786C241.361 40.6879 241.518 41.1546 241.518 41.7786V44.2266H240.518V41.9066C240.518 41.5332 240.435 41.2532 240.27 41.0666C240.105 40.8746 239.867 40.7786 239.558 40.7786C239.222 40.7786 238.953 40.8906 238.75 41.1146C238.547 41.3332 238.446 41.6479 238.446 42.0586V44.2266H237.446V41.9066C237.446 41.5332 237.363 41.2532 237.198 41.0666C237.033 40.8746 236.795 40.7786 236.486 40.7786C236.145 40.7786 235.873 40.8879 235.67 41.1066C235.473 41.3252 235.374 41.6426 235.374 42.0586V44.2266H234.374V39.9546H235.326V40.4986C235.486 40.3066 235.686 40.1599 235.926 40.0586C236.166 39.9572 236.433 39.9066 236.726 39.9066C237.046 39.9066 237.329 39.9679 237.574 40.0906C237.825 40.2079 238.022 40.3839 238.166 40.6186C238.342 40.3946 238.569 40.2212 238.846 40.0986C239.123 39.9706 239.43 39.9066 239.766 39.9066ZM244.765 43.4346C245.229 43.4346 245.616 43.2799 245.925 42.9706L246.453 43.5866C246.266 43.8159 246.026 43.9892 245.733 44.1066C245.44 44.2239 245.109 44.2826 244.741 44.2826C244.272 44.2826 243.858 44.1892 243.501 44.0026C243.144 43.8159 242.866 43.5572 242.669 43.2266C242.477 42.8906 242.381 42.5119 242.381 42.0906C242.381 41.6746 242.474 41.3012 242.661 40.9706C242.853 40.6346 243.114 40.3732 243.445 40.1866C243.781 39.9999 244.16 39.9066 244.581 39.9066C244.981 39.9066 245.344 39.9946 245.669 40.1706C246 40.3412 246.261 40.5892 246.453 40.9146C246.645 41.2346 246.741 41.6106 246.741 42.0426L243.469 42.6826C243.57 42.9279 243.733 43.1146 243.957 43.2426C244.181 43.3706 244.45 43.4346 244.765 43.4346ZM244.581 40.7066C244.213 40.7066 243.914 40.8266 243.685 41.0666C243.461 41.3066 243.349 41.6292 243.349 42.0346V42.0426L245.765 41.5786C245.696 41.3172 245.554 41.1066 245.341 40.9466C245.133 40.7866 244.88 40.7066 244.581 40.7066ZM251.918 44.2266V41.3946L250.478 43.7786H250.046L248.63 41.3866V44.2266H247.718V39.9546H248.766L250.286 42.6266L251.878 39.9546H252.814L252.822 44.2266H251.918ZM258.323 39.9546V44.2266H257.371V43.6746C257.206 43.8772 257.001 44.0292 256.755 44.1306C256.515 44.2319 256.249 44.2826 255.955 44.2826C255.539 44.2826 255.166 44.1919 254.835 44.0106C254.51 43.8292 254.254 43.5732 254.067 43.2426C253.886 42.9119 253.795 42.5279 253.795 42.0906C253.795 41.6532 253.886 41.2719 254.067 40.9466C254.254 40.6159 254.51 40.3599 254.835 40.1786C255.166 39.9972 255.539 39.9066 255.955 39.9066C256.233 39.9066 256.486 39.9546 256.715 40.0506C256.95 40.1466 257.153 40.2879 257.323 40.4746V39.9546H258.323ZM256.067 43.4266C256.435 43.4266 256.739 43.3039 256.979 43.0586C257.219 42.8132 257.339 42.4906 257.339 42.0906C257.339 41.6906 257.219 41.3679 256.979 41.1226C256.739 40.8772 256.435 40.7546 256.067 40.7546C255.699 40.7546 255.395 40.8772 255.155 41.1226C254.921 41.3679 254.803 41.6906 254.803 42.0906C254.803 42.4906 254.921 42.8132 255.155 43.0586C255.395 43.3039 255.699 43.4266 256.067 43.4266ZM76.1983 53.3466V55.4586H75.2383V54.2266H70.4863V48.6266H71.5103V53.3466H74.3343V48.6266H75.3663V53.3466H76.1983ZM81.0862 49.9546V54.2266H80.1342V53.6826C79.9742 53.8746 79.7742 54.0239 79.5342 54.1306C79.2995 54.2319 79.0435 54.2826 78.7662 54.2826C78.1955 54.2826 77.7449 54.1252 77.4142 53.8106C77.0835 53.4906 76.9182 53.0186 76.9182 52.3946V49.9546H77.9182V52.2586C77.9182 52.6426 78.0035 52.9306 78.1742 53.1226C78.3502 53.3092 78.6009 53.4026 78.9262 53.4026C79.2782 53.4026 79.5582 53.2932 79.7662 53.0746C79.9795 52.8506 80.0862 52.5306 80.0862 52.1146V49.9546H81.0862ZM88.0846 52.0826C88.0846 52.7439 87.8633 53.2639 87.4206 53.6426C86.9833 54.0212 86.3566 54.2372 85.5406 54.2906V55.7786H84.5966V54.2986C83.7806 54.2452 83.154 54.0292 82.7166 53.6506C82.2793 53.2719 82.0606 52.7492 82.0606 52.0826C82.0606 51.4212 82.2793 50.9066 82.7166 50.5386C83.154 50.1652 83.7806 49.9519 84.5966 49.8986V48.2906H85.5406V49.8986C86.3566 49.9519 86.9833 50.1652 87.4206 50.5386C87.8633 50.9119 88.0846 51.4266 88.0846 52.0826ZM83.0446 52.0826C83.0446 52.4932 83.17 52.8132 83.4206 53.0426C83.6766 53.2719 84.0686 53.4106 84.5966 53.4586V50.7466C84.0686 50.7892 83.6766 50.9226 83.4206 51.1466C83.17 51.3706 83.0446 51.6826 83.0446 52.0826ZM85.5406 53.4586C86.586 53.3626 87.1086 52.9039 87.1086 52.0826C87.1086 51.6772 86.978 51.3652 86.7166 51.1466C86.4606 50.9226 86.0686 50.7892 85.5406 50.7466V53.4586ZM91.1658 49.9066C91.6085 49.9066 91.9952 49.9972 92.3258 50.1786C92.6618 50.3599 92.9205 50.6159 93.1018 50.9466C93.2885 51.2772 93.3818 51.6612 93.3818 52.0986C93.3818 52.5306 93.2938 52.9119 93.1178 53.2426C92.9418 53.5732 92.6938 53.8292 92.3738 54.0106C92.0592 54.1919 91.6938 54.2826 91.2778 54.2826C90.6858 54.2826 90.2218 54.0932 89.8858 53.7146V55.7786H88.8778V52.1066C88.8778 51.6746 88.9738 51.2932 89.1658 50.9626C89.3578 50.6266 89.6245 50.3679 89.9658 50.1866C90.3125 49.9999 90.7125 49.9066 91.1658 49.9066ZM91.1258 53.4346C91.4992 53.4346 91.8032 53.3119 92.0378 53.0666C92.2725 52.8159 92.3898 52.4932 92.3898 52.0986C92.3898 51.7039 92.2725 51.3812 92.0378 51.1306C91.8032 50.8799 91.4992 50.7546 91.1258 50.7546C90.7472 50.7546 90.4432 50.8772 90.2138 51.1226C89.9845 51.3679 89.8698 51.6906 89.8698 52.0906C89.8698 52.4906 89.9845 52.8159 90.2138 53.0666C90.4485 53.3119 90.7525 53.4346 91.1258 53.4346ZM96.286 54.2826C95.854 54.2826 95.4646 54.1892 95.118 54.0026C94.7713 53.8159 94.4993 53.5572 94.302 53.2266C94.11 52.8906 94.014 52.5119 94.014 52.0906C94.014 51.6692 94.11 51.2932 94.302 50.9626C94.4993 50.6319 94.7713 50.3732 95.118 50.1866C95.4646 49.9999 95.854 49.9066 96.286 49.9066C96.7233 49.9066 97.1153 49.9999 97.462 50.1866C97.8086 50.3732 98.078 50.6319 98.27 50.9626C98.4673 51.2932 98.566 51.6692 98.566 52.0906C98.566 52.5119 98.4673 52.8906 98.27 53.2266C98.078 53.5572 97.8086 53.8159 97.462 54.0026C97.1153 54.1892 96.7233 54.2826 96.286 54.2826ZM96.286 53.4266C96.654 53.4266 96.958 53.3039 97.198 53.0586C97.438 52.8132 97.558 52.4906 97.558 52.0906C97.558 51.6906 97.438 51.3679 97.198 51.1226C96.958 50.8772 96.654 50.7546 96.286 50.7546C95.918 50.7546 95.614 50.8772 95.374 51.1226C95.1393 51.3679 95.022 51.6906 95.022 52.0906C95.022 52.4906 95.1393 52.8132 95.374 53.0586C95.614 53.3039 95.918 53.4266 96.286 53.4266ZM102.65 52.0026C103.178 52.1626 103.442 52.5039 103.442 53.0266C103.442 53.4106 103.298 53.7066 103.01 53.9146C102.722 54.1226 102.295 54.2266 101.73 54.2266H99.5538V49.9546H101.642C102.165 49.9546 102.573 50.0506 102.866 50.2426C103.159 50.4346 103.306 50.7066 103.306 51.0586C103.306 51.2772 103.247 51.4666 103.13 51.6266C103.018 51.7866 102.858 51.9119 102.65 52.0026ZM100.506 51.7386H101.554C102.071 51.7386 102.33 51.5599 102.33 51.2026C102.33 50.8559 102.071 50.6826 101.554 50.6826H100.506V51.7386ZM101.65 53.4986C102.199 53.4986 102.474 53.3199 102.474 52.9626C102.474 52.7759 102.41 52.6372 102.282 52.5466C102.154 52.4506 101.954 52.4026 101.682 52.4026H100.506V53.4986H101.65ZM106.411 54.2826C105.979 54.2826 105.59 54.1892 105.243 54.0026C104.896 53.8159 104.624 53.5572 104.427 53.2266C104.235 52.8906 104.139 52.5119 104.139 52.0906C104.139 51.6692 104.235 51.2932 104.427 50.9626C104.624 50.6319 104.896 50.3732 105.243 50.1866C105.59 49.9999 105.979 49.9066 106.411 49.9066C106.848 49.9066 107.24 49.9999 107.587 50.1866C107.934 50.3732 108.203 50.6319 108.395 50.9626C108.592 51.2932 108.691 51.6692 108.691 52.0906C108.691 52.5119 108.592 52.8906 108.395 53.2266C108.203 53.5572 107.934 53.8159 107.587 54.0026C107.24 54.1892 106.848 54.2826 106.411 54.2826ZM106.411 53.4266C106.779 53.4266 107.083 53.3039 107.323 53.0586C107.563 52.8132 107.683 52.4906 107.683 52.0906C107.683 51.6906 107.563 51.3679 107.323 51.1226C107.083 50.8772 106.779 50.7546 106.411 50.7546C106.043 50.7546 105.739 50.8772 105.499 51.1226C105.264 51.3679 105.147 51.6906 105.147 52.0906C105.147 52.4906 105.264 52.8132 105.499 53.0586C105.739 53.3039 106.043 53.4266 106.411 53.4266ZM111.695 53.4346C112.159 53.4346 112.546 53.2799 112.855 52.9706L113.383 53.5866C113.196 53.8159 112.956 53.9892 112.663 54.1066C112.37 54.2239 112.039 54.2826 111.671 54.2826C111.202 54.2826 110.788 54.1892 110.431 54.0026C110.074 53.8159 109.796 53.5572 109.599 53.2266C109.407 52.8906 109.311 52.5119 109.311 52.0906C109.311 51.6746 109.404 51.3012 109.591 50.9706C109.783 50.6346 110.044 50.3732 110.375 50.1866C110.711 49.9999 111.09 49.9066 111.511 49.9066C111.911 49.9066 112.274 49.9946 112.599 50.1706C112.93 50.3412 113.191 50.5892 113.383 50.9146C113.575 51.2346 113.671 51.6106 113.671 52.0426L110.399 52.6826C110.5 52.9279 110.663 53.1146 110.887 53.2426C111.111 53.3706 111.38 53.4346 111.695 53.4346ZM111.511 50.7066C111.143 50.7066 110.844 50.8266 110.615 51.0666C110.391 51.3066 110.279 51.6292 110.279 52.0346V52.0426L112.695 51.5786C112.626 51.3172 112.484 51.1066 112.271 50.9466C112.063 50.7866 111.81 50.7066 111.511 50.7066ZM121.059 54.2266V51.3946L119.619 53.7786H119.187L117.771 51.3866V54.2266H116.859V49.9546H117.907L119.427 52.6266L121.019 49.9546H121.955L121.963 54.2266H121.059ZM127.464 49.9546V54.2266H126.512V53.6746C126.346 53.8772 126.141 54.0292 125.896 54.1306C125.656 54.2319 125.389 54.2826 125.096 54.2826C124.68 54.2826 124.306 54.1919 123.976 54.0106C123.65 53.8292 123.394 53.5732 123.208 53.2426C123.026 52.9119 122.936 52.5279 122.936 52.0906C122.936 51.6532 123.026 51.2719 123.208 50.9466C123.394 50.6159 123.65 50.3599 123.976 50.1786C124.306 49.9972 124.68 49.9066 125.096 49.9066C125.373 49.9066 125.626 49.9546 125.856 50.0506C126.09 50.1466 126.293 50.2879 126.464 50.4746V49.9546H127.464ZM125.208 53.4266C125.576 53.4266 125.88 53.3039 126.12 53.0586C126.36 52.8132 126.48 52.4906 126.48 52.0906C126.48 51.6906 126.36 51.3679 126.12 51.1226C125.88 50.8772 125.576 50.7546 125.208 50.7546C124.84 50.7546 124.536 50.8772 124.296 51.1226C124.061 51.3679 123.944 51.6906 123.944 52.0906C123.944 52.4906 124.061 52.8132 124.296 53.0586C124.536 53.3039 124.84 53.4266 125.208 53.4266ZM134.18 49.9066C134.719 49.9066 135.146 50.0639 135.46 50.3786C135.775 50.6879 135.932 51.1546 135.932 51.7786V54.2266H134.932V51.9066C134.932 51.5332 134.85 51.2532 134.684 51.0666C134.519 50.8746 134.282 50.7786 133.972 50.7786C133.636 50.7786 133.367 50.8906 133.164 51.1146C132.962 51.3332 132.86 51.6479 132.86 52.0586V54.2266H131.86V51.9066C131.86 51.5332 131.778 51.2532 131.612 51.0666C131.447 50.8746 131.21 50.7786 130.9 50.7786C130.559 50.7786 130.287 50.8879 130.084 51.1066C129.887 51.3252 129.788 51.6426 129.788 52.0586V54.2266H128.788V49.9546H129.74V50.4986C129.9 50.3066 130.1 50.1599 130.34 50.0586C130.58 49.9572 130.847 49.9066 131.14 49.9066C131.46 49.9066 131.743 49.9679 131.988 50.0906C132.239 50.2079 132.436 50.3839 132.58 50.6186C132.756 50.3946 132.983 50.2212 133.26 50.0986C133.538 49.9706 133.844 49.9066 134.18 49.9066ZM139.179 53.4346C139.643 53.4346 140.03 53.2799 140.339 52.9706L140.867 53.5866C140.681 53.8159 140.441 53.9892 140.147 54.1066C139.854 54.2239 139.523 54.2826 139.155 54.2826C138.686 54.2826 138.273 54.1892 137.915 54.0026C137.558 53.8159 137.281 53.5572 137.083 53.2266C136.891 52.8906 136.795 52.5119 136.795 52.0906C136.795 51.6746 136.889 51.3012 137.075 50.9706C137.267 50.6346 137.529 50.3732 137.859 50.1866C138.195 49.9999 138.574 49.9066 138.995 49.9066C139.395 49.9066 139.758 49.9946 140.083 50.1706C140.414 50.3412 140.675 50.5892 140.867 50.9146C141.059 51.2346 141.155 51.6106 141.155 52.0426L137.883 52.6826C137.985 52.9279 138.147 53.1146 138.371 53.2426C138.595 53.3706 138.865 53.4346 139.179 53.4346ZM138.995 50.7066C138.627 50.7066 138.329 50.8266 138.099 51.0666C137.875 51.3066 137.763 51.6292 137.763 52.0346V52.0426L140.179 51.5786C140.11 51.3172 139.969 51.1066 139.755 50.9466C139.547 50.7866 139.294 50.7066 138.995 50.7066ZM144.244 49.9066C144.687 49.9066 145.073 49.9972 145.404 50.1786C145.74 50.3599 145.999 50.6159 146.18 50.9466C146.367 51.2772 146.46 51.6612 146.46 52.0986C146.46 52.5306 146.372 52.9119 146.196 53.2426C146.02 53.5732 145.772 53.8292 145.452 54.0106C145.137 54.1919 144.772 54.2826 144.356 54.2826C143.764 54.2826 143.3 54.0932 142.964 53.7146V55.7786H141.956V52.1066C141.956 51.6746 142.052 51.2932 142.244 50.9626C142.436 50.6266 142.703 50.3679 143.044 50.1866C143.391 49.9999 143.791 49.9066 144.244 49.9066ZM144.204 53.4346C144.577 53.4346 144.881 53.3119 145.116 53.0666C145.351 52.8159 145.468 52.4932 145.468 52.0986C145.468 51.7039 145.351 51.3812 145.116 51.1306C144.881 50.8799 144.577 50.7546 144.204 50.7546C143.825 50.7546 143.521 50.8772 143.292 51.1226C143.063 51.3679 142.948 51.6906 142.948 52.0906C142.948 52.4906 143.063 52.8159 143.292 53.0666C143.527 53.3119 143.831 53.4346 144.204 53.4346ZM151.508 49.9546V54.2266H150.556V53.6826C150.396 53.8746 150.196 54.0239 149.956 54.1306C149.721 54.2319 149.465 54.2826 149.188 54.2826C148.617 54.2826 148.167 54.1252 147.836 53.8106C147.505 53.4906 147.34 53.0186 147.34 52.3946V49.9546H148.34V52.2586C148.34 52.6426 148.425 52.9306 148.596 53.1226C148.772 53.3092 149.023 53.4026 149.348 53.4026C149.7 53.4026 149.98 53.2932 150.188 53.0746C150.401 52.8506 150.508 52.5306 150.508 52.1146V49.9546H151.508ZM157.019 49.9546V54.2266H156.067V53.6746C155.901 53.8772 155.696 54.0292 155.451 54.1306C155.211 54.2319 154.944 54.2826 154.651 54.2826C154.235 54.2826 153.861 54.1919 153.531 54.0106C153.205 53.8292 152.949 53.5732 152.763 53.2426C152.581 52.9119 152.491 52.5279 152.491 52.0906C152.491 51.6532 152.581 51.2719 152.763 50.9466C152.949 50.6159 153.205 50.3599 153.531 50.1786C153.861 49.9972 154.235 49.9066 154.651 49.9066C154.928 49.9066 155.181 49.9546 155.411 50.0506C155.645 50.1466 155.848 50.2879 156.019 50.4746V49.9546H157.019ZM154.763 53.4266C155.131 53.4266 155.435 53.3039 155.675 53.0586C155.915 52.8132 156.035 52.4906 156.035 52.0906C156.035 51.6906 155.915 51.3679 155.675 51.1226C155.435 50.8772 155.131 50.7546 154.763 50.7546C154.395 50.7546 154.091 50.8772 153.851 51.1226C153.616 51.3679 153.499 51.6906 153.499 52.0906C153.499 52.4906 153.616 52.8132 153.851 53.0586C154.091 53.3039 154.395 53.4266 154.763 53.4266ZM162.215 49.9546V54.2266H161.215V50.8026H159.615L159.575 51.6506C159.548 52.2159 159.495 52.6906 159.415 53.0746C159.34 53.4532 159.21 53.7546 159.023 53.9786C158.842 54.1972 158.591 54.3066 158.271 54.3066C158.122 54.3066 157.938 54.2772 157.719 54.2186L157.767 53.3786C157.842 53.3946 157.906 53.4026 157.959 53.4026C158.162 53.4026 158.314 53.3226 158.415 53.1626C158.516 52.9972 158.58 52.8026 158.607 52.5786C158.639 52.3492 158.666 52.0239 158.687 51.6026L158.759 49.9546H162.215ZM165.466 54.2826C165.034 54.2826 164.644 54.1892 164.298 54.0026C163.951 53.8159 163.679 53.5572 163.482 53.2266C163.29 52.8906 163.194 52.5119 163.194 52.0906C163.194 51.6692 163.29 51.2932 163.482 50.9626C163.679 50.6319 163.951 50.3732 164.298 50.1866C164.644 49.9999 165.034 49.9066 165.466 49.9066C165.903 49.9066 166.295 49.9999 166.642 50.1866C166.988 50.3732 167.258 50.6319 167.45 50.9626C167.647 51.2932 167.746 51.6692 167.746 52.0906C167.746 52.5119 167.647 52.8906 167.45 53.2266C167.258 53.5572 166.988 53.8159 166.642 54.0026C166.295 54.1892 165.903 54.2826 165.466 54.2826ZM165.466 53.4266C165.834 53.4266 166.138 53.3039 166.378 53.0586C166.618 52.8132 166.738 52.4906 166.738 52.0906C166.738 51.6906 166.618 51.3679 166.378 51.1226C166.138 50.8772 165.834 50.7546 165.466 50.7546C165.098 50.7546 164.794 50.8772 164.554 51.1226C164.319 51.3679 164.202 51.6906 164.202 52.0906C164.202 52.4906 164.319 52.8132 164.554 53.0586C164.794 53.3039 165.098 53.4266 165.466 53.4266ZM171.83 52.0026C172.358 52.1626 172.622 52.5039 172.622 53.0266C172.622 53.4106 172.478 53.7066 172.19 53.9146C171.902 54.1226 171.475 54.2266 170.91 54.2266H168.734V49.9546H170.822C171.344 49.9546 171.752 50.0506 172.046 50.2426C172.339 50.4346 172.486 50.7066 172.486 51.0586C172.486 51.2772 172.427 51.4666 172.31 51.6266C172.198 51.7866 172.038 51.9119 171.83 52.0026ZM169.686 51.7386H170.734C171.251 51.7386 171.51 51.5599 171.51 51.2026C171.51 50.8559 171.251 50.6826 170.734 50.6826H169.686V51.7386ZM170.83 53.4986C171.379 53.4986 171.654 53.3199 171.654 52.9626C171.654 52.7759 171.59 52.6372 171.462 52.5466C171.334 52.4506 171.134 52.4026 170.862 52.4026H169.686V53.4986H170.83ZM175.703 53.4346C176.167 53.4346 176.553 53.2799 176.863 52.9706L177.391 53.5866C177.204 53.8159 176.964 53.9892 176.671 54.1066C176.377 54.2239 176.047 54.2826 175.679 54.2826C175.209 54.2826 174.796 54.1892 174.439 54.0026C174.081 53.8159 173.804 53.5572 173.607 53.2266C173.415 52.8906 173.319 52.5119 173.319 52.0906C173.319 51.6746 173.412 51.3012 173.599 50.9706C173.791 50.6346 174.052 50.3732 174.383 50.1866C174.719 49.9999 175.097 49.9066 175.519 49.9066C175.919 49.9066 176.281 49.9946 176.607 50.1706C176.937 50.3412 177.199 50.5892 177.391 50.9146C177.583 51.2346 177.679 51.6106 177.679 52.0426L174.407 52.6826C174.508 52.9279 174.671 53.1146 174.895 53.2426C175.119 53.3706 175.388 53.4346 175.703 53.4346ZM175.519 50.7066C175.151 50.7066 174.852 50.8266 174.623 51.0666C174.399 51.3066 174.287 51.6292 174.287 52.0346V52.0426L176.703 51.5786C176.633 51.3172 176.492 51.1066 176.279 50.9466C176.071 50.7866 175.817 50.7066 175.519 50.7066ZM182.863 49.9546V53.5786C182.863 55.0826 182.095 55.8346 180.559 55.8346C180.149 55.8346 179.759 55.7812 179.391 55.6746C179.023 55.5732 178.719 55.4239 178.479 55.2266L178.927 54.4746C179.114 54.6292 179.349 54.7519 179.631 54.8426C179.919 54.9386 180.21 54.9866 180.503 54.9866C180.973 54.9866 181.317 54.8799 181.535 54.6666C181.754 54.4532 181.863 54.1279 181.863 53.6906V53.4666C181.693 53.6532 181.485 53.7946 181.239 53.8906C180.994 53.9866 180.725 54.0346 180.431 54.0346C180.026 54.0346 179.658 53.9492 179.327 53.7786C179.002 53.6026 178.743 53.3572 178.551 53.0426C178.365 52.7279 178.271 52.3679 178.271 51.9626C178.271 51.5572 178.365 51.1999 178.551 50.8906C178.743 50.5759 179.002 50.3332 179.327 50.1626C179.658 49.9919 180.026 49.9066 180.431 49.9066C180.741 49.9066 181.021 49.9572 181.271 50.0586C181.527 50.1599 181.741 50.3146 181.911 50.5226V49.9546H182.863ZM180.583 53.1866C180.962 53.1866 181.271 53.0746 181.511 52.8506C181.757 52.6212 181.879 52.3252 181.879 51.9626C181.879 51.6052 181.757 51.3146 181.511 51.0906C181.271 50.8666 180.962 50.7546 180.583 50.7546C180.199 50.7546 179.885 50.8666 179.639 51.0906C179.399 51.3146 179.279 51.6052 179.279 51.9626C179.279 52.3252 179.399 52.6212 179.639 52.8506C179.885 53.0746 180.199 53.1866 180.583 53.1866ZM186.226 53.4346C186.69 53.4346 187.077 53.2799 187.386 52.9706L187.914 53.5866C187.727 53.8159 187.487 53.9892 187.194 54.1066C186.901 54.2239 186.57 54.2826 186.202 54.2826C185.733 54.2826 185.319 54.1892 184.962 54.0026C184.605 53.8159 184.327 53.5572 184.13 53.2266C183.938 52.8906 183.842 52.5119 183.842 52.0906C183.842 51.6746 183.935 51.3012 184.122 50.9706C184.314 50.6346 184.575 50.3732 184.906 50.1866C185.242 49.9999 185.621 49.9066 186.042 49.9066C186.442 49.9066 186.805 49.9946 187.13 50.1706C187.461 50.3412 187.722 50.5892 187.914 50.9146C188.106 51.2346 188.202 51.6106 188.202 52.0426L184.93 52.6826C185.031 52.9279 185.194 53.1146 185.418 53.2426C185.642 53.3706 185.911 53.4346 186.226 53.4346ZM186.042 50.7066C185.674 50.7066 185.375 50.8266 185.146 51.0666C184.922 51.3066 184.81 51.6292 184.81 52.0346V52.0426L187.226 51.5786C187.157 51.3172 187.015 51.1066 186.802 50.9466C186.594 50.7866 186.341 50.7066 186.042 50.7066ZM189.179 49.9546H190.179V51.6906H192.331V49.9546H193.331V54.2266H192.331V52.5386H190.179V54.2266H189.179V49.9546ZM198.719 49.9546V54.2266H197.767V53.6826C197.607 53.8746 197.407 54.0239 197.167 54.1306C196.932 54.2319 196.676 54.2826 196.399 54.2826C195.828 54.2826 195.378 54.1252 195.047 53.8106C194.716 53.4906 194.551 53.0186 194.551 52.3946V49.9546H195.551V52.2586C195.551 52.6426 195.636 52.9306 195.807 53.1226C195.983 53.3092 196.234 53.4026 196.559 53.4026C196.911 53.4026 197.191 53.2932 197.399 53.0746C197.612 52.8506 197.719 52.5306 197.719 52.1146V49.9546H198.719ZM202.085 53.4346C202.549 53.4346 202.936 53.2799 203.245 52.9706L203.773 53.5866C203.587 53.8159 203.347 53.9892 203.053 54.1066C202.76 54.2239 202.429 54.2826 202.061 54.2826C201.592 54.2826 201.179 54.1892 200.821 54.0026C200.464 53.8159 200.187 53.5572 199.989 53.2266C199.797 52.8906 199.701 52.5119 199.701 52.0906C199.701 51.6746 199.795 51.3012 199.981 50.9706C200.173 50.6346 200.435 50.3732 200.765 50.1866C201.101 49.9999 201.48 49.9066 201.901 49.9066C202.301 49.9066 202.664 49.9946 202.989 50.1706C203.32 50.3412 203.581 50.5892 203.773 50.9146C203.965 51.2346 204.061 51.6106 204.061 52.0426L200.789 52.6826C200.891 52.9279 201.053 53.1146 201.277 53.2426C201.501 53.3706 201.771 53.4346 202.085 53.4346ZM201.901 50.7066C201.533 50.7066 201.235 50.8266 201.005 51.0666C200.781 51.3066 200.669 51.6292 200.669 52.0346V52.0426L203.085 51.5786C203.016 51.3172 202.875 51.1066 202.661 50.9466C202.453 50.7866 202.2 50.7066 201.901 50.7066Z" fill="#091F5B"/>
<path d="M27.5645 67.0918L27.7216 79.1835" stroke="#091F5B"/>
<path d="M0.5 0.634766L0.630176 52.7332C0.66691 67.4348 12.6147 79.3231 27.3163 79.2863C42.0179 79.2496 53.9062 67.3018 53.8694 52.6002L53.7393 0.50174" stroke="#091F5B"/>
<mask id="path-5-inside-1_1637_18068" fill="white">
<path d="M53.8873 22.3403L52.2351 23.3056L27.4044 48.2189L27.4043 49.5014L53.8941 22.9198L53.8942 22.3927C53.8942 22.3747 53.8897 22.3578 53.8873 22.3403ZM27.3987 66.696L53.8884 40.111L53.8889 38.8285L27.3993 65.4139L27.3987 66.696ZM46.46 56.1355L53.8852 48.7004L53.8858 47.421L43.4112 57.9175L46.46 56.1355ZM36.2401 62.1072L53.8867 44.4086L53.8872 43.1261L33.1926 63.8887L36.2401 62.1072ZM33.2245 33.7872L27.4108 39.6195L27.4081 40.9036L36.2865 31.9977L33.2245 33.7872ZM27.4012 58.0991L53.8912 31.5141L53.8918 30.2311L27.4024 56.817L27.4012 58.0991ZM27.4026 53.8L53.8927 27.2151L53.8932 25.9321L27.4027 52.5173L27.4026 53.8ZM43.4889 27.7882L27.4058 43.9197L27.406 45.2029L46.5509 25.9987L43.4889 27.7882ZM27.4002 62.3981L53.8896 35.8134L53.8901 34.5299L27.4003 61.1156L27.4002 62.3981Z"/>
</mask>
<path d="M53.8873 22.3403L54.8782 22.2056L54.6765 20.721L53.3828 21.4769L53.8873 22.3403ZM52.2351 23.3056L51.7306 22.4422L51.6185 22.5077L51.5268 22.5997L52.2351 23.3056ZM27.4044 48.2189L26.6961 47.513L26.4044 47.8057L26.4044 48.2189L27.4044 48.2189ZM27.4043 49.5014L26.4043 49.5014L26.4042 51.9217L28.1126 50.2073L27.4043 49.5014ZM53.8941 22.9198L54.6025 23.6256L54.8941 23.333L54.8941 22.9199L53.8941 22.9198ZM53.8942 22.3927L54.8942 22.3929L54.8942 22.3903L53.8942 22.3927ZM27.3987 66.696L26.3987 66.6955L26.3977 69.1174L28.1071 67.4018L27.3987 66.696ZM53.8884 40.111L54.5967 40.8168L54.8882 40.5243L54.8884 40.1114L53.8884 40.111ZM53.8889 38.8285L54.8889 38.8289L54.8899 36.4071L53.1805 38.1227L53.8889 38.8285ZM27.3993 65.4139L26.6909 64.7081L26.3995 65.0006L26.3993 65.4135L27.3993 65.4139ZM46.46 56.1355L46.9646 56.9989L47.0763 56.9337L47.1676 56.8422L46.46 56.1355ZM53.8852 48.7004L54.5928 49.407L54.885 49.1144L54.8852 48.7009L53.8852 48.7004ZM53.8858 47.421L54.8858 47.4214L54.8868 45.0021L53.1779 46.7146L53.8858 47.421ZM43.4112 57.9175L42.7033 57.2111L43.9158 58.7809L43.4112 57.9175ZM36.2401 62.1072L36.7448 62.9705L36.8567 62.9051L36.9482 62.8133L36.2401 62.1072ZM53.8867 44.4086L54.5948 45.1147L54.8865 44.8222L54.8867 44.4091L53.8867 44.4086ZM53.8872 43.1261L54.8872 43.1266L54.8883 40.7053L53.179 42.4202L53.8872 43.1261ZM33.1926 63.8887L32.4843 63.1828L33.6973 64.752L33.1926 63.8887ZM33.2245 33.7872L32.7199 32.9238L32.6079 32.9893L32.5162 33.0812L33.2245 33.7872ZM27.4108 39.6195L26.7025 38.9135L26.4116 39.2053L26.4108 39.6174L27.4108 39.6195ZM27.4081 40.9036L26.4081 40.9015L26.4031 43.3281L28.1163 41.6096L27.4081 40.9036ZM36.2865 31.9977L36.9947 32.7037L35.7819 31.1343L36.2865 31.9977ZM27.4012 58.0991L26.4012 58.0981L26.3988 60.5218L28.1095 58.8049L27.4012 58.0991ZM53.8912 31.5141L54.5996 32.2199L54.8911 31.9274L54.8912 31.5145L53.8912 31.5141ZM53.8918 30.2311L54.8918 30.2316L54.8928 27.8097L53.1834 29.5253L53.8918 30.2311ZM27.4024 56.817L26.694 56.1112L26.4028 56.4035L26.4024 56.8161L27.4024 56.817ZM27.4026 53.8L26.4026 53.8L26.4025 56.2205L28.111 54.5059L27.4026 53.8ZM53.8927 27.2151L54.6011 27.9209L54.8925 27.6284L54.8927 27.2155L53.8927 27.2151ZM53.8932 25.9321L54.8932 25.9325L54.8943 23.5107L53.1849 25.2262L53.8932 25.9321ZM27.4027 52.5173L26.6943 51.8114L26.4027 52.1041L26.4027 52.5172L27.4027 52.5173ZM43.4889 27.7882L42.9843 26.9248L42.8723 26.9903L42.7807 27.0822L43.4889 27.7882ZM27.4058 43.9197L26.6976 43.2136L26.4058 43.5064L26.4058 43.9198L27.4058 43.9197ZM27.406 45.2029L26.406 45.203L26.4063 47.6221L28.1142 45.9089L27.406 45.2029ZM46.5509 25.9987L47.2591 26.7047L46.0463 25.1353L46.5509 25.9987ZM27.4002 62.3981L26.4002 62.398L26.4001 64.8186L28.1086 63.1039L27.4002 62.3981ZM53.8896 35.8134L54.5979 36.5192L54.8894 36.2267L54.8896 35.8138L53.8896 35.8134ZM53.8901 34.5299L54.8901 34.5304L54.8911 32.1085L53.1817 33.8241L53.8901 34.5299ZM27.4003 61.1156L26.6919 60.4098L26.4003 60.7024L26.4003 61.1155L27.4003 61.1156ZM53.8873 22.3403L53.3828 21.4769L51.7306 22.4422L52.2351 23.3056L52.7396 24.1691L54.3918 23.2037L53.8873 22.3403ZM52.2351 23.3056L51.5268 22.5997L26.6961 47.513L27.4044 48.2189L28.1126 48.9249L52.9434 24.0116L52.2351 23.3056ZM27.4044 48.2189L26.4044 48.2189L26.4043 49.5014L27.4043 49.5014L28.4043 49.5015L28.4044 48.219L27.4044 48.2189ZM27.4043 49.5014L28.1126 50.2073L54.6025 23.6256L53.8941 22.9198L53.1858 22.2139L26.696 48.7956L27.4043 49.5014ZM53.8941 22.9198L54.8941 22.9199L54.8942 22.3929L53.8942 22.3927L52.8942 22.3926L52.8941 22.9196L53.8941 22.9198ZM53.8942 22.3927L54.8942 22.3903C54.894 22.3017 54.8829 22.2314 54.8784 22.2039C54.8766 22.1932 54.8735 22.1759 54.8744 22.1811C54.8745 22.1812 54.8746 22.1818 54.8747 22.1829C54.8749 22.1839 54.8752 22.1855 54.8755 22.1875C54.8762 22.1915 54.8771 22.1978 54.8782 22.2056L53.8873 22.3403L52.8964 22.4749C52.8996 22.4985 52.903 22.5177 52.9043 22.5256C52.9047 22.5277 52.9051 22.5297 52.9053 22.5308C52.9055 22.5323 52.9056 22.5327 52.9057 22.5331C52.9058 22.534 52.9055 22.532 52.9049 22.5288C52.9032 22.5186 52.8944 22.4658 52.8942 22.3952L53.8942 22.3927ZM27.3987 66.696L28.1071 67.4018L54.5967 40.8168L53.8884 40.111L53.18 39.4052L26.6904 65.9901L27.3987 66.696ZM53.8884 40.111L54.8884 40.1114L54.8889 38.8289L53.8889 38.8285L52.8889 38.8281L52.8884 40.1106L53.8884 40.111ZM53.8889 38.8285L53.1805 38.1227L26.6909 64.7081L27.3993 65.4139L28.1077 66.1198L54.5973 39.5343L53.8889 38.8285ZM27.3993 65.4139L26.3993 65.4135L26.3987 66.6955L27.3987 66.696L28.3987 66.6964L28.3993 65.4144L27.3993 65.4139ZM46.46 56.1355L47.1676 56.8422L54.5928 49.407L53.8852 48.7004L53.1776 47.9938L45.7525 55.4289L46.46 56.1355ZM53.8852 48.7004L54.8852 48.7009L54.8858 47.4214L53.8858 47.421L52.8858 47.4205L52.8852 48.7L53.8852 48.7004ZM53.8858 47.421L53.1779 46.7146L42.7033 57.2111L43.4112 57.9175L44.119 58.6239L54.5936 48.1273L53.8858 47.421ZM43.4112 57.9175L43.9158 58.7809L46.9646 56.9989L46.46 56.1355L45.9554 55.2722L42.9065 57.0542L43.4112 57.9175ZM36.2401 62.1072L36.9482 62.8133L54.5948 45.1147L53.8867 44.4086L53.1785 43.7026L35.5319 61.4012L36.2401 62.1072ZM53.8867 44.4086L54.8867 44.4091L54.8872 43.1266L53.8872 43.1261L52.8872 43.1257L52.8867 44.4082L53.8867 44.4086ZM53.8872 43.1261L53.179 42.4202L32.4843 63.1828L33.1926 63.8887L33.9009 64.5947L54.5955 43.8321L53.8872 43.1261ZM33.1926 63.8887L33.6973 64.752L36.7448 62.9705L36.2401 62.1072L35.7354 61.2439L32.6879 63.0254L33.1926 63.8887ZM33.2245 33.7872L32.5162 33.0812L26.7025 38.9135L27.4108 39.6195L28.119 40.3254L33.9327 34.4932L33.2245 33.7872ZM27.4108 39.6195L26.4108 39.6174L26.4081 40.9015L27.4081 40.9036L28.4081 40.9057L28.4108 39.6215L27.4108 39.6195ZM27.4081 40.9036L28.1163 41.6096L36.9947 32.7037L36.2865 31.9977L35.5783 31.2917L26.6999 40.1976L27.4081 40.9036ZM36.2865 31.9977L35.7819 31.1343L32.7199 32.9238L33.2245 33.7872L33.7291 34.6506L36.791 32.8611L36.2865 31.9977ZM27.4012 58.0991L28.1095 58.8049L54.5996 32.2199L53.8912 31.5141L53.1829 30.8082L26.6928 57.3932L27.4012 58.0991ZM53.8912 31.5141L54.8912 31.5145L54.8918 30.2316L53.8918 30.2311L52.8918 30.2307L52.8912 31.5137L53.8912 31.5141ZM53.8918 30.2311L53.1834 29.5253L26.694 56.1112L27.4024 56.817L28.1108 57.5229L54.6002 30.9369L53.8918 30.2311ZM27.4024 56.817L26.4024 56.8161L26.4012 58.0981L27.4012 58.0991L28.4012 58.1L28.4024 56.818L27.4024 56.817ZM27.4026 53.8L28.111 54.5059L54.6011 27.9209L53.8927 27.2151L53.1843 26.5092L26.6942 53.0942L27.4026 53.8ZM53.8927 27.2151L54.8927 27.2155L54.8932 25.9325L53.8932 25.9321L52.8932 25.9317L52.8927 27.2146L53.8927 27.2151ZM53.8932 25.9321L53.1849 25.2262L26.6943 51.8114L27.4027 52.5173L28.1111 53.2231L54.6016 26.6379L53.8932 25.9321ZM27.4027 52.5173L26.4027 52.5172L26.4026 53.8L27.4026 53.8L28.4026 53.8001L28.4027 52.5174L27.4027 52.5173ZM43.4889 27.7882L42.7807 27.0822L26.6976 43.2136L27.4058 43.9197L28.114 44.6257L44.1971 28.4943L43.4889 27.7882ZM27.4058 43.9197L26.4058 43.9198L26.406 45.203L27.406 45.2029L28.406 45.2027L28.4058 43.9196L27.4058 43.9197ZM27.406 45.2029L28.1142 45.9089L47.2591 26.7047L46.5509 25.9987L45.8427 25.2927L26.6978 44.4969L27.406 45.2029ZM46.5509 25.9987L46.0463 25.1353L42.9843 26.9248L43.4889 27.7882L43.9935 28.6516L47.0555 26.8621L46.5509 25.9987ZM27.4002 62.3981L28.1086 63.1039L54.5979 36.5192L53.8896 35.8134L53.1812 35.1075L26.6918 61.6923L27.4002 62.3981ZM53.8896 35.8134L54.8896 35.8138L54.8901 34.5304L53.8901 34.5299L52.8901 34.5295L52.8896 35.8129L53.8896 35.8134ZM53.8901 34.5299L53.1817 33.8241L26.6919 60.4098L27.4003 61.1156L28.1087 61.8214L54.5985 35.2358L53.8901 34.5299ZM27.4003 61.1156L26.4003 61.1155L26.4002 62.398L27.4002 62.3981L28.4002 62.3982L28.4003 61.1157L27.4003 61.1156Z" fill="#091F5B" mask="url(#path-5-inside-1_1637_18068)"/>
<path d="M53.6958 22.0505L53.6054 22.206L53.6035 22.207L53.6958 22.0505Z" stroke="#091F5B"/>
<mask id="path-8-inside-2_1637_18068" fill="white">
<path d="M27.1758 38.1309C27.107 38.1311 27.0389 38.113 26.979 38.0789L0.939479 23.199C0.818229 23.1295 0.742055 22.999 0.741234 22.859C0.740415 22.72 0.81523 22.5896 0.9366 22.5188L27.2556 7.20417C27.3159 7.16931 27.3853 7.15061 27.4553 7.15044C27.524 7.15027 27.5917 7.16815 27.6507 7.20224L53.6909 22.0833C53.8126 22.1526 53.8885 22.283 53.8898 22.4237C53.8902 22.5618 53.8156 22.6926 53.6949 22.7628L27.3749 38.0772C27.3145 38.1118 27.2453 38.1307 27.1758 38.1309ZM1.92301 22.8544L27.1734 37.2834L52.7073 22.4269L27.4578 7.99791L1.92301 22.8544Z"/>
</mask>
<path d="M26.979 38.0789L26.4828 38.9471L26.4845 38.9481L26.979 38.0789ZM0.939479 23.199L0.441762 24.0664L0.443336 24.0673L0.939479 23.199ZM0.741234 22.859L1.74122 22.8532L1.74122 22.8531L0.741234 22.859ZM0.9366 22.5188L0.433664 21.6544L0.432258 21.6552L0.9366 22.5188ZM27.2556 7.20417L26.7547 6.33871L26.7527 6.33985L27.2556 7.20417ZM27.6507 7.20224L27.1502 8.06802L27.1545 8.07047L27.6507 7.20224ZM53.6909 22.0833L53.1947 22.9515L53.1959 22.9522L53.6909 22.0833ZM53.8898 22.4237L54.8898 22.4212L54.8898 22.4145L53.8898 22.4237ZM53.6949 22.7628L53.1921 21.8984L53.192 21.8985L53.6949 22.7628ZM27.3749 38.0772L27.8719 38.945L27.8779 38.9415L27.3749 38.0772ZM1.92301 22.8544L1.42012 21.9901L-0.0788965 22.8622L1.42686 23.7227L1.92301 22.8544ZM27.1734 37.2834L26.6773 38.1517L27.1779 38.4378L27.6763 38.1478L27.1734 37.2834ZM52.7073 22.4269L53.2102 23.2913L54.7092 22.4191L53.2035 21.5587L52.7073 22.4269ZM27.4578 7.99791L27.954 7.12968L27.4534 6.84359L26.9549 7.13356L27.4578 7.99791ZM27.1758 38.1309L27.1733 37.1309C27.2808 37.1306 27.3837 37.1586 27.4735 37.2097L26.979 38.0789L26.4845 38.9481C26.6941 39.0673 26.9332 39.1315 27.1783 39.1309L27.1758 38.1309ZM26.979 38.0789L27.4751 37.2106L1.43562 22.3308L0.939479 23.199L0.443336 24.0673L26.4828 38.9471L26.979 38.0789ZM0.939479 23.199L1.43719 22.3317C1.6245 22.4392 1.73995 22.6367 1.74122 22.8532L0.741234 22.859L-0.258749 22.8649C-0.255838 23.3614 0.0119566 23.8197 0.441763 24.0664L0.939479 23.199ZM0.741234 22.859L1.74122 22.8531C1.74253 23.0763 1.62432 23.2751 1.44094 23.3823L0.9366 22.5188L0.432258 21.6552C0.00613936 21.9041 -0.2617 22.3637 -0.258749 22.8649L0.741234 22.859ZM0.9366 22.5188L1.43953 23.3831L27.7586 8.06849L27.2556 7.20417L26.7527 6.33985L0.433665 21.6544L0.9366 22.5188ZM27.2556 7.20417L27.7566 8.06963C27.6645 8.12292 27.562 8.15018 27.4578 8.15044L27.4553 7.15044L27.4528 6.15044C27.2086 6.15105 26.9672 6.2157 26.7547 6.33871L27.2556 7.20417ZM27.4553 7.15044L27.4578 8.15044C27.3525 8.1507 27.2463 8.12353 27.1502 8.06801L27.6507 7.20224L28.1511 6.33648C27.9371 6.21277 27.6956 6.14984 27.4528 6.15044L27.4553 7.15044ZM27.6507 7.20224L27.1545 8.07047L53.1947 22.9515L53.6909 22.0833L54.187 21.215L28.1468 6.33401L27.6507 7.20224ZM53.6909 22.0833L53.1959 22.9522C53.0047 22.8432 52.8918 22.6441 52.8899 22.4329L53.8898 22.4237L54.8898 22.4145C54.8852 21.9219 54.6205 21.462 54.1859 21.2144L53.6909 22.0833ZM53.8898 22.4237L52.8898 22.4262C52.8893 22.2074 53.0041 22.0078 53.1921 21.8984L53.6949 22.7628L54.1977 23.6272C54.6271 23.3775 54.8911 22.9163 54.8898 22.4212L53.8898 22.4237ZM53.6949 22.7628L53.192 21.8985L26.872 37.2128L27.3749 38.0772L27.8779 38.9415L54.1978 23.6272L53.6949 22.7628ZM27.3749 38.0772L26.8779 37.2094C26.9643 37.16 27.065 37.1312 27.1733 37.1309L27.1758 38.1309L27.1783 39.1309C27.4256 39.1303 27.6647 39.0636 27.8719 38.9449L27.3749 38.0772ZM1.92301 22.8544L1.42686 23.7227L26.6773 38.1517L27.1734 37.2834L27.6696 36.4152L2.41915 21.9862L1.92301 22.8544ZM27.1734 37.2834L27.6763 38.1478L53.2102 23.2913L52.7073 22.4269L52.2044 21.5626L26.6705 36.4191L27.1734 37.2834ZM52.7073 22.4269L53.2035 21.5587L27.954 7.12968L27.4578 7.99791L26.9617 8.86615L52.2112 23.2951L52.7073 22.4269ZM27.4578 7.99791L26.9549 7.13356L1.42012 21.9901L1.92301 22.8544L2.4259 23.7188L27.9607 8.86226L27.4578 7.99791Z" fill="#091F5B" mask="url(#path-8-inside-2_1637_18068)"/>
<mask id="path-10-inside-3_1637_18068" fill="white">
<path d="M20.1747 41.502L19.5762 41.5035L8.86421 47.7644L8.866 48.4821L9.3916 48.4808L9.29211 48.4237L20.1761 42.0627L20.1747 41.502Z"/>
</mask>
<path d="M20.1747 41.502L21.1747 41.4995L21.1722 40.4995L20.1722 40.502L20.1747 41.502ZM19.5762 41.5035L19.5737 40.5035L19.3043 40.5041L19.0716 40.6401L19.5762 41.5035ZM8.86421 47.7644L8.3596 46.901L7.86277 47.1914L7.86421 47.7669L8.86421 47.7644ZM8.866 48.4821L7.86601 48.4846L7.8685 49.4846L8.8685 49.4821L8.866 48.4821ZM9.3916 48.4808L9.3941 49.4808L13.1235 49.4715L9.88975 47.6137L9.3916 48.4808ZM9.29211 48.4237L8.78753 47.5603L7.29756 48.4311L8.79396 49.2907L9.29211 48.4237ZM20.1761 42.0627L20.6807 42.9261L21.1776 42.6357L21.1761 42.0602L20.1761 42.0627ZM20.1747 41.502L20.1722 40.502L19.5737 40.5035L19.5762 41.5035L19.5787 42.5035L20.1772 42.502L20.1747 41.502ZM19.5762 41.5035L19.0716 40.6401L8.3596 46.901L8.86421 47.7644L9.36882 48.6277L20.0808 42.3668L19.5762 41.5035ZM8.86421 47.7644L7.86421 47.7669L7.86601 48.4846L8.866 48.4821L9.866 48.4796L9.86421 47.7619L8.86421 47.7644ZM8.866 48.4821L8.8685 49.4821L9.3941 49.4808L9.3916 48.4808L9.3891 47.4808L8.8635 47.4821L8.866 48.4821ZM9.3916 48.4808L9.88975 47.6137L9.79025 47.5566L9.29211 48.4237L8.79396 49.2907L8.89346 49.3479L9.3916 48.4808ZM9.29211 48.4237L9.79668 49.287L20.6807 42.9261L20.1761 42.0627L19.6715 41.1994L8.78753 47.5603L9.29211 48.4237ZM20.1761 42.0627L21.1761 42.0602L21.1747 41.4995L20.1747 41.502L19.1747 41.5045L19.1761 42.0652L20.1761 42.0627Z" fill="#091F5B" mask="url(#path-10-inside-3_1637_18068)"/>
<mask id="path-12-inside-4_1637_18068" fill="white">
<path d="M27.2848 67.8534C27.2144 67.8536 27.1455 67.8357 27.0856 67.8016L0.727668 52.9134C0.603743 52.8436 0.527117 52.7131 0.527004 52.5725L0.538002 22.8108C0.53813 22.6712 0.614581 22.541 0.737442 22.471C0.798157 22.4361 0.86702 22.4179 0.936644 22.4177C1.00674 22.4176 1.07546 22.4355 1.13563 22.4696L27.4942 37.3578C27.6179 37.4278 27.6945 37.5581 27.6939 37.6977L27.6832 67.4606C27.6831 67.6002 27.6068 67.7306 27.4842 67.8006C27.4245 67.835 27.3554 67.8533 27.2848 67.8534ZM1.32592 52.3453L26.8841 66.7819L26.8955 37.9264L1.33633 23.4902L1.32592 52.3453Z"/>
</mask>
<path d="M27.0856 67.8016L27.5802 66.9325L27.5774 66.9309L27.0856 67.8016ZM0.727668 52.9134L1.21948 52.0427L1.21867 52.0423L0.727668 52.9134ZM0.527004 52.5725L-0.472997 52.5722L-0.472996 52.5733L0.527004 52.5725ZM0.538002 22.8108L-0.461998 22.8099L-0.461998 22.8104L0.538002 22.8108ZM0.737442 22.471L1.23245 23.3399L1.23555 23.3381L0.737442 22.471ZM1.13563 22.4696L0.642521 23.3395L0.643829 23.3403L1.13563 22.4696ZM27.4942 37.3578L27.9872 36.4877L27.986 36.487L27.4942 37.3578ZM27.6939 37.6977L26.6939 37.6934L26.6939 37.6973L27.6939 37.6977ZM27.6832 67.4606L28.6832 67.4615L28.6832 67.461L27.6832 67.4606ZM27.4842 67.8006L26.9885 66.9321L26.9853 66.934L27.4842 67.8006ZM1.32592 52.3453L0.325925 52.3449L0.325714 52.9288L0.834108 53.216L1.32592 52.3453ZM26.8841 66.7819L26.3923 67.6526L27.8835 68.4949L27.8841 66.7823L26.8841 66.7819ZM26.8955 37.9264L27.8955 37.9268L27.8957 37.3428L27.3873 37.0556L26.8955 37.9264ZM1.33633 23.4902L1.82812 22.6195L0.336946 21.7772L0.336329 23.4898L1.33633 23.4902ZM27.2848 67.8534L27.2823 66.8534C27.3819 66.8532 27.4849 66.8783 27.5802 66.9325L27.0856 67.8016L26.591 68.6707C26.8061 68.7931 27.047 68.854 27.2873 68.8534L27.2848 67.8534ZM27.0856 67.8016L27.5774 66.9309L1.21948 52.0427L0.727668 52.9134L0.235854 53.7841L26.5937 68.6723L27.0856 67.8016ZM0.727668 52.9134L1.21867 52.0423C1.40554 52.1476 1.52682 52.3477 1.527 52.5717L0.527004 52.5725L-0.472996 52.5733C-0.472591 53.0785 -0.198052 53.5396 0.236666 53.7846L0.727668 52.9134ZM0.527004 52.5725L1.527 52.5729L1.538 22.8112L0.538002 22.8108L-0.461998 22.8104L-0.472996 52.5722L0.527004 52.5725ZM0.538002 22.8108L1.538 22.8117C1.53779 23.0371 1.41626 23.2352 1.23245 23.3399L0.737442 22.471L0.242433 21.6021C-0.187097 21.8468 -0.461535 22.3053 -0.461998 22.8099L0.538002 22.8108ZM0.737442 22.471L1.23555 23.3381C1.14399 23.3907 1.04179 23.4175 0.939143 23.4177L0.936644 22.4177L0.934145 21.4177C0.692249 21.4183 0.452327 21.4816 0.239328 21.6039L0.737442 22.471ZM0.936644 22.4177L0.939143 23.4177C0.838058 23.418 0.735622 23.3923 0.642522 23.3395L1.13563 22.4696L1.62874 21.5996C1.4153 21.4786 1.17543 21.4171 0.934145 21.4177L0.936644 22.4177ZM1.13563 22.4696L0.643829 23.3403L27.0024 38.2285L27.4942 37.3578L27.986 36.487L1.62744 21.5989L1.13563 22.4696ZM27.4942 37.3578L27.0013 38.2278C26.8181 38.124 26.693 37.9244 26.694 37.6934L27.6939 37.6977L28.6939 37.702C28.6961 37.1918 28.4177 36.7316 27.9872 36.4877L27.4942 37.3578ZM27.6939 37.6977L26.6939 37.6973L26.6832 67.4602L27.6832 67.4606L28.6832 67.461L28.6939 37.6981L27.6939 37.6977ZM27.6832 67.4606L26.6832 67.4597C26.6834 67.2364 26.8033 67.0379 26.9885 66.9321L27.4842 67.8006L27.98 68.6691C28.4104 68.4234 28.6827 67.9641 28.6832 67.4615L27.6832 67.4606ZM27.4842 67.8006L26.9853 66.934C27.081 66.8789 27.1838 66.8537 27.2823 66.8534L27.2848 67.8534L27.2873 68.8534C27.5269 68.8528 27.7679 68.7912 27.9832 68.6673L27.4842 67.8006ZM1.32592 52.3453L0.834108 53.216L26.3923 67.6526L26.8841 66.7819L27.376 65.9112L1.81774 51.4746L1.32592 52.3453ZM26.8841 66.7819L27.8841 66.7823L27.8955 37.9268L26.8955 37.9264L25.8955 37.926L25.8841 66.7815L26.8841 66.7819ZM26.8955 37.9264L27.3873 37.0556L1.82812 22.6195L1.33633 23.4902L0.844538 24.3609L26.4037 38.7971L26.8955 37.9264ZM1.33633 23.4902L0.336329 23.4898L0.325925 52.3449L1.32592 52.3453L2.32592 52.3456L2.33633 23.4906L1.33633 23.4902Z" fill="#091F5B" mask="url(#path-12-inside-4_1637_18068)"/>
<mask id="path-14-inside-5_1637_18068" fill="white">
<path d="M20.4096 55.7188C20.3772 55.7188 20.3456 55.7105 20.3181 55.6946L8.21725 48.7483C8.16022 48.7157 8.12516 48.6548 8.12499 48.5892L8.12944 34.7044C8.12951 34.6393 8.1645 34.5785 8.2209 34.5458C8.24898 34.5295 8.28035 34.521 8.31246 34.5209C8.34456 34.5208 8.37598 34.5292 8.40367 34.5453L20.505 41.4916C20.5618 41.5242 20.5971 41.5851 20.5968 41.6502L20.5924 55.5357C20.5923 55.6009 20.5573 55.6617 20.5009 55.6944C20.4735 55.7102 20.4419 55.7187 20.4096 55.7188ZM8.94494 48.2235L19.7727 54.439L19.7771 42.0164L8.94905 35.8011L8.94494 48.2235Z"/>
</mask>
<path d="M20.3181 55.6946L20.8185 54.8288L20.816 54.8273L20.3181 55.6946ZM8.21725 48.7483L8.71509 47.8811L8.71429 47.8806L8.21725 48.7483ZM8.12499 48.5892L7.12499 48.5889L7.125 48.5917L8.12499 48.5892ZM8.12944 34.7044L7.12944 34.7033L7.12944 34.7041L8.12944 34.7044ZM8.2209 34.5458L7.72026 33.6801L7.71912 33.6808L8.2209 34.5458ZM8.40367 34.5453L7.90104 35.4098L7.90585 35.4126L8.40367 34.5453ZM20.505 41.4916L21.0036 40.6247L21.0028 40.6243L20.505 41.4916ZM20.5968 41.6502L19.5968 41.6455L19.5968 41.6499L20.5968 41.6502ZM20.5924 55.5357L21.5924 55.5368L21.5924 55.5361L20.5924 55.5357ZM20.5009 55.6944L21 56.5609L21.0027 56.5594L20.5009 55.6944ZM8.94494 48.2235L7.94494 48.2232L7.94475 48.8024L8.4471 49.0908L8.94494 48.2235ZM19.7727 54.439L19.2749 55.3063L20.7721 56.1658L20.7727 54.4394L19.7727 54.439ZM19.7771 42.0164L20.7771 42.0168L20.7773 41.4375L20.2749 41.1491L19.7771 42.0164ZM8.94905 35.8011L9.44687 34.9338L7.94962 34.0744L7.94905 35.8008L8.94905 35.8011ZM20.4096 55.7188L20.4071 54.7188C20.5476 54.7184 20.69 54.7545 20.8185 54.8288L20.3181 55.6946L19.8178 56.5604C20.0012 56.6664 20.2069 56.7193 20.4121 56.7188L20.4096 55.7188ZM20.3181 55.6946L20.816 54.8273L8.71509 47.8811L8.21725 48.7483L7.71941 49.6156L19.8203 56.5619L20.3181 55.6946ZM8.21725 48.7483L8.71429 47.8806C8.96998 48.0271 9.12427 48.2976 9.12499 48.5867L8.12499 48.5892L7.125 48.5917C7.12605 49.0121 7.35047 49.4043 7.72021 49.6161L8.21725 48.7483ZM8.12499 48.5892L9.12499 48.5896L9.12944 34.7047L8.12944 34.7044L7.12944 34.7041L7.12499 48.5889L8.12499 48.5892ZM8.12944 34.7044L9.12944 34.7055C9.12912 34.9961 8.97472 35.2645 8.72268 35.4108L8.2209 34.5458L7.71912 33.6808C7.35429 33.8924 7.1299 34.2825 7.12944 34.7033L8.12944 34.7044ZM8.2209 34.5458L8.72153 35.4114C8.59992 35.4818 8.45979 35.5206 8.31495 35.5209L8.31246 34.5209L8.30996 33.5209C8.10091 33.5215 7.89803 33.5773 7.72026 33.6801L8.2209 34.5458ZM8.31246 34.5209L8.31495 35.5209C8.17138 35.5213 8.02822 35.4837 7.90105 35.4098L8.40367 34.5453L8.9063 33.6808C8.72374 33.5747 8.51774 33.5204 8.30996 33.5209L8.31246 34.5209ZM8.40367 34.5453L7.90585 35.4126L20.0072 42.3588L20.505 41.4916L21.0028 40.6243L8.9015 33.678L8.40367 34.5453ZM20.505 41.4916L20.0064 42.3584C19.7553 42.214 19.5954 41.9442 19.5968 41.6455L20.5968 41.6502L21.5968 41.6549C21.5988 41.226 21.3683 40.8345 21.0036 40.6247L20.505 41.4916ZM20.5968 41.6502L19.5968 41.6499L19.5924 55.5354L20.5924 55.5357L21.5924 55.5361L21.5968 41.6505L20.5968 41.6502ZM20.5924 55.5357L19.5924 55.5347C19.5927 55.2441 19.7471 54.9756 19.9991 54.8294L20.5009 55.6944L21.0027 56.5594C21.3675 56.3477 21.5919 55.9577 21.5924 55.5368L20.5924 55.5357ZM20.5009 55.6944L20.0018 54.8278C20.1269 54.7558 20.2668 54.7191 20.4071 54.7188L20.4096 55.7188L20.4121 56.7188C20.6171 56.7182 20.8201 56.6646 21 56.5609L20.5009 55.6944ZM8.94494 48.2235L8.4471 49.0908L19.2749 55.3063L19.7727 54.439L20.2706 53.5718L9.44278 47.3562L8.94494 48.2235ZM19.7727 54.439L20.7727 54.4394L20.7771 42.0168L19.7771 42.0164L18.7771 42.0161L18.7727 54.4387L19.7727 54.439ZM19.7771 42.0164L20.2749 41.1491L9.44687 34.9338L8.94905 35.8011L8.45123 36.6684L19.2793 42.8837L19.7771 42.0164ZM8.94905 35.8011L7.94905 35.8008L7.94494 48.2232L8.94494 48.2235L9.94494 48.2238L9.94905 35.8015L8.94905 35.8011Z" fill="#091F5B" mask="url(#path-14-inside-5_1637_18068)"/>
<mask id="path-16-inside-6_1637_18068" fill="white">
<path d="M13.306 51.1412L14.1111 51.6142L20.1352 45.5686L20.1491 44.2732L13.306 51.1412ZM16.8125 53.2013L20.0887 49.9132L20.1025 48.6166L16.0064 52.7277L16.8125 53.2013ZM19.5124 54.7878L20.0421 54.2562L20.056 52.9608L18.707 54.3146L19.5124 54.7878ZM16.0986 44.0396L10.6039 49.5538L11.4103 50.0275L18.9296 42.481L16.0986 44.0396ZM8.70961 48.4408L9.44568 47.7019L8.41674 48.2686L8.70961 48.4408Z"/>
</mask>
<path d="M13.306 51.1412L12.5976 50.4354L11.6866 51.3497L12.7995 52.0034L13.306 51.1412ZM14.1111 51.6142L13.6046 52.4764L14.2727 52.8688L14.8195 52.32L14.1111 51.6142ZM20.1352 45.5686L20.8436 46.2744L21.1308 45.9862L21.1352 45.5793L20.1352 45.5686ZM20.1491 44.2732L21.149 44.2839L21.1753 41.8264L19.4407 43.5674L20.1491 44.2732ZM16.8125 53.2013L16.3059 54.0635L16.974 54.4561L17.5209 53.9072L16.8125 53.2013ZM20.0887 49.9132L20.7971 50.619L21.0843 50.3308L21.0886 49.9239L20.0887 49.9132ZM20.1025 48.6166L21.1025 48.6273L21.1288 46.1699L19.3941 47.9108L20.1025 48.6166ZM16.0064 52.7277L15.298 52.0218L14.3871 52.936L15.4998 53.5898L16.0064 52.7277ZM19.5124 54.7878L19.0059 55.65L19.6739 56.0425L20.2208 55.4936L19.5124 54.7878ZM20.0421 54.2562L20.7505 54.962L21.0377 54.6738L21.042 54.2669L20.0421 54.2562ZM20.056 52.9608L21.0559 52.9715L21.0822 50.514L19.3476 52.2549L20.056 52.9608ZM18.707 54.3146L17.9986 53.6088L17.0877 54.523L18.2005 55.1768L18.707 54.3146ZM16.0986 44.0396L15.6163 43.1636L15.4911 43.2325L15.3902 43.3338L16.0986 44.0396ZM10.6039 49.5538L9.89556 48.8479L8.98449 49.7622L10.0974 50.416L10.6039 49.5538ZM11.4103 50.0275L10.9038 50.8897L11.5718 51.2821L12.1186 50.7333L11.4103 50.0275ZM18.9296 42.481L19.638 43.1869L18.4473 41.605L18.9296 42.481ZM8.70961 48.4408L8.20276 49.3028L8.87095 49.6957L9.41804 49.1465L8.70961 48.4408ZM9.44568 47.7019L10.1541 48.4077L8.96331 46.826L9.44568 47.7019ZM8.41674 48.2686L7.93437 47.3926L6.39537 48.2401L7.90988 49.1306L8.41674 48.2686ZM13.306 51.1412L12.7995 52.0034L13.6046 52.4764L14.1111 51.6142L14.6176 50.7519L13.8125 50.2789L13.306 51.1412ZM14.1111 51.6142L14.8195 52.32L20.8436 46.2744L20.1352 45.5686L19.4269 44.8628L13.4028 50.9083L14.1111 51.6142ZM20.1352 45.5686L21.1352 45.5793L21.149 44.2839L20.1491 44.2732L19.1491 44.2625L19.1353 45.5579L20.1352 45.5686ZM20.1491 44.2732L19.4407 43.5674L12.5976 50.4354L13.306 51.1412L14.0144 51.847L20.8575 44.979L20.1491 44.2732ZM16.8125 53.2013L17.5209 53.9072L20.7971 50.619L20.0887 49.9132L19.3803 49.2074L16.1041 52.4955L16.8125 53.2013ZM20.0887 49.9132L21.0886 49.9239L21.1025 48.6273L20.1025 48.6166L19.1026 48.6059L19.0887 49.9025L20.0887 49.9132ZM20.1025 48.6166L19.3941 47.9108L15.298 52.0218L16.0064 52.7277L16.7148 53.4335L20.8109 49.3224L20.1025 48.6166ZM16.0064 52.7277L15.4998 53.5898L16.3059 54.0635L16.8125 53.2013L17.3191 52.3392L16.513 51.8655L16.0064 52.7277ZM19.5124 54.7878L20.2208 55.4936L20.7505 54.962L20.0421 54.2562L19.3337 53.5504L18.804 54.082L19.5124 54.7878ZM20.0421 54.2562L21.042 54.2669L21.0559 52.9715L20.056 52.9608L19.056 52.9501L19.0422 54.2455L20.0421 54.2562ZM20.056 52.9608L19.3476 52.2549L17.9986 53.6088L18.707 54.3146L19.4154 55.0204L20.7644 53.6666L20.056 52.9608ZM18.707 54.3146L18.2005 55.1768L19.0059 55.65L19.5124 54.7878L20.019 53.9256L19.2136 53.4524L18.707 54.3146ZM16.0986 44.0396L15.3902 43.3338L9.89556 48.8479L10.6039 49.5538L11.3123 50.2596L16.8069 44.7455L16.0986 44.0396ZM10.6039 49.5538L10.0974 50.416L10.9038 50.8897L11.4103 50.0275L11.9168 49.1652L11.1104 48.6915L10.6039 49.5538ZM11.4103 50.0275L12.1186 50.7333L19.638 43.1869L18.9296 42.481L18.2212 41.7752L10.7019 49.3216L11.4103 50.0275ZM18.9296 42.481L18.4473 41.605L15.6163 43.1636L16.0986 44.0396L16.5808 44.9156L19.4119 43.357L18.9296 42.481ZM8.70961 48.4408L9.41804 49.1465L10.1541 48.4077L9.44568 47.7019L8.73725 46.9962L8.00119 47.735L8.70961 48.4408ZM9.44568 47.7019L8.96331 46.826L7.93437 47.3926L8.41674 48.2686L8.89911 49.1445L9.92805 48.5779L9.44568 47.7019ZM8.41674 48.2686L7.90988 49.1306L8.20276 49.3028L8.70961 48.4408L9.21647 47.5787L8.9236 47.4065L8.41674 48.2686Z" fill="#091F5B" mask="url(#path-16-inside-6_1637_18068)"/>
<path d="M27.4814 1.26953L27.4967 7.3621" stroke="#091F5B"/>
<path d="M0.119141 0.634766L27.1799 0.947433L40.6494 0.723636L54.119 0.499839" stroke="#091F5B"/>
</svg>
