<svg width="182" height="37" viewBox="0 0 182 37" fill="none" xmlns="http://www.w3.org/2000/svg">
<path fill-rule="evenodd" clip-rule="evenodd" d="M8.26562 1.30078H14.7082L14.7565 13.9582C14.7565 21.3565 8.31396 21.3565 8.31396 21.3565L8.26562 1.30078Z" fill="#004B88"/>
<path fill-rule="evenodd" clip-rule="evenodd" d="M15.8203 1.30078V13.869C15.8203 21.316 22.2145 21.3646 22.2145 21.3646L22.2628 1.30078H15.8203Z" fill="#004B88"/>
<path fill-rule="evenodd" clip-rule="evenodd" d="M15.2949 19.4805C16.8491 19.4805 18.1055 20.7447 18.1055 22.3085C18.1055 23.8725 16.8491 25.1366 15.2949 25.1366C13.7407 25.1366 12.4844 23.8725 12.4844 22.3085C12.4763 20.7447 13.7407 19.4805 15.2949 19.4805Z" fill="#BF1E2E"/>
<path fill-rule="evenodd" clip-rule="evenodd" d="M23.0859 1.3125H29.4077L29.464 21.8949L23.1343 21.6923L23.0859 1.3125Z" fill="#004B88"/>
<path fill-rule="evenodd" clip-rule="evenodd" d="M1.25144 1.3125H7.4282V21.6923L1.20312 21.8949L1.25144 1.3125Z" fill="#004B88"/>
<path fill-rule="evenodd" clip-rule="evenodd" d="M1.23438 22.6602C1.23438 36.4844 14.6508 36.5411 14.6508 36.5411V31.2659C7.44331 30.9093 7.44331 22.9194 7.44331 22.9194L1.23438 22.6602Z" fill="#004B88"/>
<path fill-rule="evenodd" clip-rule="evenodd" d="M29.4227 22.6055C29.0039 36.5512 15.8532 36.5756 15.8532 36.4297L15.7969 31.2031C23.0527 30.8465 23.1091 22.808 23.1091 22.808L29.4227 22.6055Z" fill="#004B88"/>
<path fill-rule="evenodd" clip-rule="evenodd" d="M8.34375 23.0117C8.40015 30.2155 14.6413 30.4748 14.6413 30.4748L14.6896 29.9644C14.6977 23.1171 8.34375 23.0117 8.34375 23.0117Z" fill="#004B88"/>
<path fill-rule="evenodd" clip-rule="evenodd" d="M22.2554 23.0117C22.0943 30.3695 15.7969 30.4748 15.7969 30.4748V29.8589C15.7969 23.1171 22.2554 23.0117 22.2554 23.0117Z" fill="#004B88"/>
<path d="M43.6155 4.48947V1.95312H44.3081V8.19272H43.6155V5.12962H40.4426V8.19272H39.75V1.95312H40.4426V4.48947H43.6155Z" fill="#004B88"/>
<path d="M46.8496 6.42586L46.1007 8.20046H45.3438L48.0738 1.96094H48.3394L50.9969 8.20046H50.2319L49.4991 6.42586H46.8496ZM48.1945 3.28178L47.1315 5.78569H49.2333L48.1945 3.28178Z" fill="#004B88"/>
<path d="M52.0469 8.20046V1.96094H52.7395V7.56029H55.9123V1.96094H56.6049V7.56029H57.3055V9.91026H56.6129V8.2086H52.0469V8.20046Z" fill="#004B88"/>
<path d="M62.1312 8.20046V3.5897L58.4831 8.20046H58.2656V1.96094H58.9582V6.59602L62.6063 1.96094H62.8237V8.20046H62.1312Z" fill="#004B88"/>
<path d="M70.5923 5.08898C70.5923 6.88794 69.1263 8.31413 67.355 8.31413C65.5829 8.31413 64.1172 6.88794 64.1172 5.08898C64.1172 3.29815 65.5829 1.84766 67.355 1.84766C69.1263 1.84766 70.5923 3.29815 70.5923 5.08898ZM64.8097 5.08088C64.8097 6.49085 65.9452 7.66582 67.355 7.66582C68.7637 7.66582 69.8997 6.49085 69.8997 5.08088C69.8997 3.6628 68.7803 2.49592 67.355 2.49592C65.9291 2.49592 64.8097 3.6628 64.8097 5.08088Z" fill="#004B88"/>
<path d="M75.756 4.48947V1.95312H76.4486V8.19272H75.756V5.12962H72.5833V8.19272H71.8906V1.95312H72.5833V4.48947H75.756Z" fill="#004B88"/>
<path d="M79.006 6.42586L78.2567 8.20046H77.5L80.23 1.96094H80.496L83.1533 8.20046H82.388L81.6553 6.42586H79.006ZM80.3433 3.28178L79.2793 5.78569H81.3813L80.3433 3.28178Z" fill="#004B88"/>
<path d="M88.5925 1.94951V8.18908H87.8999V2.58967H85.4272V6.23616C85.4272 7.42736 84.9119 8.18908 83.8492 8.18908H83.6719V7.5732H83.7365C84.5172 7.5732 84.7425 6.92496 84.7425 6.03357V1.94141H88.5925V1.94951Z" fill="#004B88"/>
<path d="M90.9036 4.65905H91.7089C92.7149 4.65905 93.7056 5.05611 93.7056 6.38504C93.7056 7.74637 92.7069 8.20833 91.4829 8.20833H90.2109V1.96875H90.9036V4.65905ZM90.9036 7.55195H91.4269C92.2003 7.55195 93.0129 7.36554 93.0129 6.40936C93.0129 5.43697 92.0869 5.2992 91.3296 5.2992H90.8949V7.55195H90.9036Z" fill="#004B88"/>
<path d="M98.8035 4.48947V1.95312H99.4962V8.19272H98.8035V5.12962H95.6302V8.19272H94.9375V1.95312H95.6302V4.48947H98.8035Z" fill="#004B88"/>
<path d="M101.81 4.65962H102.615C103.622 4.65962 104.613 5.05668 104.613 6.38563C104.613 7.74697 103.615 8.20893 102.39 8.20893H101.117V1.96933H101.81V4.65962ZM101.81 7.55248H102.333C103.107 7.55248 103.921 7.36614 103.921 6.40994C103.921 5.43754 103.002 5.2998 102.245 5.2998H101.81V7.55248ZM105.958 1.95312V8.19272H105.265V1.95312H105.958Z" fill="#004B88"/>
<path d="M111.475 8.20055V3.58976L107.827 8.20055H107.609V1.961H108.302V6.59609L111.95 1.961H112.167V8.20055H111.475ZM109.252 0C109.389 0.372745 109.631 0.559126 110.033 0.559126C110.435 0.559126 110.678 0.364645 110.815 0L111.338 0.16206C111.281 0.615849 110.702 1.12635 110.033 1.12635C109.365 1.12635 108.793 0.648262 108.729 0.16206L109.252 0Z" fill="#004B88"/>
<path d="M43.6155 18.1422V13.5314L39.9675 18.1422H39.75V11.8945H40.4426V16.5296L44.0906 11.8945H44.3081V18.1422H43.6155Z" fill="#004B88"/>
<path d="M50.652 13.2636C50.1608 12.753 49.4764 12.437 48.7596 12.437C47.3745 12.437 46.255 13.6444 46.255 15.022C46.255 16.3995 47.3825 17.607 48.7757 17.607C49.4764 17.607 50.1608 17.2747 50.652 16.7804V17.6394C50.1206 18.0283 49.4601 18.2552 48.7998 18.2552C47.0442 18.2552 45.5625 16.8209 45.5625 15.0544C45.5625 13.2636 47.02 11.7969 48.7998 11.7969C49.4924 11.7969 50.0964 11.9914 50.652 12.4128V13.2636Z" fill="#004B88"/>
<path d="M56.8942 13.2636C56.403 12.753 55.7185 12.437 55.0018 12.437C53.6166 12.437 52.4972 13.6444 52.4972 15.022C52.4972 16.3995 53.6247 17.607 55.0179 17.607C55.7185 17.607 56.403 17.2747 56.8942 16.7804V17.6394C56.3627 18.0283 55.7024 18.2552 55.042 18.2552C53.2865 18.2552 51.8047 16.8209 51.8047 15.0544C51.8047 13.2636 53.2623 11.7969 55.042 11.7969C55.7346 11.7969 56.3386 11.9914 56.8942 12.4128V13.2636Z" fill="#004B88"/>
<path d="M62.8192 11.8945V18.1422H62.1267V12.5428H59.6543V16.1893C59.6543 17.3805 59.1389 18.1422 58.0759 18.1422H57.8906V17.5263H57.9551C58.7363 17.5263 58.9618 16.8781 58.9618 15.9867V11.8945H62.8192Z" fill="#004B88"/>
<path d="M64.4375 11.8945H67.6587V12.5428H65.1301V14.3984H67.586V15.0467H65.1301V17.494H67.6587V18.1422H64.4375V11.8945Z" fill="#004B88"/>
<path d="M73.6925 19.8439V18.1422H69.2552V19.8439H68.5625V17.494H68.7478C69.4565 17.494 69.9638 16.3433 69.9638 15.1926V11.8945H73.6845V17.494H74.3852V19.8439H73.6925ZM72.9918 12.5428H70.6565V14.9414C70.6565 16.1974 70.3665 17.0969 69.8998 17.494H72.9918V12.5428Z" fill="#004B88"/>
<path d="M81.5378 15.0343C81.5378 16.8332 80.0725 18.2594 78.3005 18.2594C76.5285 18.2594 75.0625 16.8332 75.0625 15.0343C75.0625 13.2434 76.5285 11.793 78.3005 11.793C80.0798 11.793 81.5378 13.2434 81.5378 15.0343ZM75.7638 15.0262C75.7638 16.4363 76.8992 17.6111 78.3085 17.6111C79.7178 17.6111 80.8532 16.4363 80.8532 15.0262C80.8532 13.6082 79.7338 12.4412 78.3085 12.4412C76.8825 12.4412 75.7638 13.6082 75.7638 15.0262Z" fill="#004B88"/>
<path d="M82.8203 11.8945H83.843C84.9703 11.8945 85.921 12.3078 85.921 13.58C85.921 14.0824 85.735 14.5119 85.309 14.7955C86.0496 14.9819 86.4843 15.6464 86.4843 16.3919C86.4843 17.6317 85.4856 18.1341 84.2616 18.1341H82.8203V11.8945ZM83.513 14.6497H83.7783C84.5596 14.6497 85.2283 14.5605 85.2283 13.5881C85.2283 12.64 84.6316 12.5428 83.7863 12.5428H83.513V14.6497ZM83.513 17.494H84.2056C84.9783 17.494 85.7916 17.2994 85.7916 16.3513C85.7916 15.3789 84.8736 15.2412 84.117 15.2412H83.513V17.494Z" fill="#004B88"/>
<path d="M88.7489 16.3676L87.9995 18.1422H87.2422L89.9722 11.8945H90.2382L92.8955 18.1422H92.1308L91.3982 16.3676H88.7489ZM90.0935 13.2235L89.0309 15.7274H91.1322L90.0935 13.2235Z" fill="#004B88"/>
<path d="M95.0657 18.1422H94.373V12.5428H92.875V11.8945H96.5797V12.5428H95.0657V18.1422Z" fill="#004B88"/>
<path d="M97.625 11.8945H100.846V12.5428H98.3177V14.3984H100.774V15.0467H98.3177V17.494H100.846V18.1422H97.625V11.8945Z" fill="#004B88"/>
<path d="M106.779 11.8945V18.1422H106.087V12.5428H103.615V16.1893C103.615 17.3805 103.099 18.1422 102.036 18.1422H101.859V17.5263H101.923C102.705 17.5263 102.931 16.8781 102.931 15.9867V11.8945H106.779Z" fill="#004B88"/>
<path d="M109.083 14.593H109.888C110.895 14.593 111.885 14.99 111.885 16.3189C111.885 17.6803 110.887 18.1422 109.663 18.1422H108.391V11.8945H109.083V14.593ZM109.083 17.494H109.606C110.379 17.494 111.193 17.2994 111.193 16.3513C111.193 15.3789 110.275 15.2412 109.518 15.2412H109.083V17.494Z" fill="#004B88"/>
<path d="M117.824 13.2636C117.333 12.753 116.648 12.437 115.932 12.437C114.546 12.437 113.427 13.6444 113.427 15.022C113.427 16.3995 114.554 17.607 115.948 17.607C116.648 17.607 117.333 17.2747 117.824 16.7804V17.6394C117.293 18.0283 116.632 18.2552 115.972 18.2552C114.216 18.2552 112.734 16.8209 112.734 15.0544C112.734 13.2636 114.192 11.7969 115.972 11.7969C116.665 11.7969 117.276 11.9914 117.824 12.4128V13.2636Z" fill="#004B88"/>
<path d="M122.663 11.8987H123.588L120.674 14.8078L123.686 18.1463H122.728L120.182 15.2778L120.013 15.4479V18.1382H119.32V11.8906H120.013V14.5647L122.663 11.8987Z" fill="#004B88"/>
<path d="M128.584 18.1422V13.5314L124.937 18.1422H124.719V11.8945H125.411V16.5296L129.059 11.8945H129.277V18.1422H128.584Z" fill="#004B88"/>
<path d="M134.81 18.1459V13.5351L131.162 18.1459H130.953V11.8982H131.645V16.5333L135.293 11.8982H135.51V18.1459H134.81ZM132.588 9.94531C132.724 10.3181 132.966 10.5045 133.369 10.5045C133.771 10.5045 134.013 10.3181 134.15 9.94531L134.674 10.1074C134.617 10.5612 134.037 11.0717 133.369 11.0717C132.7 11.0717 132.128 10.5936 132.064 10.1074L132.588 9.94531Z" fill="#004B88"/>
<path d="M141.141 18.1422V11.8945H141.833V17.494H145.007V11.8945H145.699V17.494H146.399V19.8439H145.707V18.1422H141.141Z" fill="#004B88"/>
<path d="M147.321 11.8945H150.542V12.5428H148.013V14.3984H150.461V15.0467H148.005V17.494H150.535V18.1422H147.312V11.8945H147.321Z" fill="#004B88"/>
<path d="M155.952 14.4309V11.8945H156.644V18.1422H155.952V15.0792H152.779V18.1422H152.086V11.8945H152.779V14.4309H155.952Z" fill="#004B88"/>
<path d="M159.902 18.1422H159.209V12.5428H157.711V11.8945H161.416V12.5428H159.902V18.1422Z" fill="#004B88"/>
<path d="M163.146 18.1422H162.453V11.8945H163.476C164.008 11.8945 164.563 11.9107 165.014 12.2268C165.473 12.5509 165.715 13.0939 165.715 13.653C165.715 14.1554 165.505 14.674 165.119 14.9982C164.7 15.3466 164.168 15.4114 163.645 15.4114H163.146V18.1422ZM163.146 14.7631H163.604C164.37 14.7631 165.022 14.5281 165.022 13.6368C165.022 12.6157 164.209 12.5428 163.404 12.5428H163.146V14.7631Z" fill="#004B88"/>
<path d="M35.9697 35.0806L35.4624 35.4777L33.8438 33.4762L35.4624 31.418L35.9697 31.8232L34.6731 33.4762L35.9697 35.0806ZM37.6045 35.0806L37.0972 35.4777L35.4785 33.4762L37.0972 31.418L37.6045 31.8232L36.308 33.4762L37.6045 35.0806Z" fill="#004B88"/>
<path d="M43.2889 28.5039H45.6243L42.7414 31.9559L45.882 35.7969H43.4419L41.0099 32.6366H40.9938V35.7969H39.1094V28.5039H40.9938V31.5103H41.0099L43.2889 28.5039Z" fill="#004B88"/>
<path d="M48.9487 35.7969H47.024L48.1192 33.6333L45.4375 28.5039H47.483L49.0856 31.721L50.7204 28.5039H52.7658L48.9487 35.7969Z" fill="#004B88"/>
<path d="M53.1875 28.5039H56.0705C57.6248 28.5039 58.7038 29.2332 58.7038 30.9025C58.7038 32.6204 57.7778 33.3821 56.135 33.3821H55.0719V35.7969H53.1875V28.5039ZM55.0719 31.8506H55.386C56.0705 31.8506 56.739 31.8506 56.739 30.9592C56.739 30.0435 56.1108 30.0274 55.386 30.0274H55.0719V31.8506Z" fill="#004B88"/>
<path d="M62.5862 31.5225L63.7459 31.4901V28.5H65.6303V35.7929H63.7459V33.1512L62.5862 33.1837C61.7406 33.1999 60.7904 32.973 60.1864 32.3734C59.4616 31.6684 59.4375 30.8418 59.4375 28.5081H61.3219C61.2494 30.6716 61.3783 31.5549 62.5862 31.5225Z" fill="#004B88"/>
<path d="M68.7077 34.5288L68.2083 35.7929H66.2109L68.9977 28.5H71.051L73.781 35.7929H71.7763L71.309 34.5288H68.7077ZM70.0283 30.7608H70.0123L69.231 33.0783H70.801L70.0283 30.7608Z" fill="#004B88"/>
<path d="M76.6724 35.7969H74.7877V30.1084H73.2344V28.5039H78.2344V30.1084H76.681V35.7969H76.6724Z" fill="#004B88"/>
<path d="M86.5597 32.0176C86.5597 34.3756 84.8771 36.0368 82.5497 36.0368C80.2224 36.0368 78.5391 34.3756 78.5391 32.0176C78.5391 29.8134 80.4637 28.2656 82.5497 28.2656C84.6357 28.2656 86.5597 29.8134 86.5597 32.0176ZM80.5044 32.0257C80.5044 33.2817 81.4304 34.2055 82.5497 34.2055C83.6771 34.2055 84.5951 33.2898 84.5951 32.0257C84.5951 31.0208 83.6691 30.097 82.5497 30.097C81.4304 30.1051 80.5044 31.0208 80.5044 32.0257Z" fill="#004B88"/>
<path d="M87.4297 35.7969V28.5039H90.1197C91.4084 28.5039 92.2697 29.0063 92.2697 30.4001C92.2697 31.0564 92.0604 31.5913 91.4724 31.8911V31.9073C92.5117 32.0451 92.9537 32.75 92.9537 33.763C92.9537 35.2945 91.6577 35.7969 90.329 35.7969H87.4297ZM89.3137 31.3644H89.5237C90.023 31.3644 90.5464 31.2753 90.5464 30.6594C90.5464 29.9949 89.9584 29.9544 89.451 29.9544H89.3137V31.3644ZM89.3137 34.3464H89.5564C90.1117 34.3464 91.0537 34.3788 91.0537 33.5766C91.0537 32.6933 90.1197 32.7825 89.507 32.7825H89.3137V34.3464Z" fill="#004B88"/>
<path d="M99.1112 30.9542C98.7245 30.4356 98.1038 30.152 97.4605 30.152C96.3078 30.152 95.5272 31.0434 95.5272 32.1697C95.5272 33.3203 96.3165 34.155 97.4845 34.155C98.0965 34.155 98.7165 33.8552 99.1112 33.3852V35.6541C98.4832 35.8486 98.0318 35.9944 97.4438 35.9944C96.4372 35.9944 95.4712 35.6055 94.7218 34.9167C93.9245 34.1874 93.5625 33.2474 93.5625 32.1616C93.5625 31.1649 93.9332 30.2087 94.6258 29.4956C95.3338 28.7582 96.3645 28.3125 97.3872 28.3125C97.9912 28.3125 98.5472 28.4503 99.1112 28.6772V30.9542Z" fill="#004B88"/>
<path d="M104.453 28.5039H106.789L103.905 31.9559L107.046 35.7969H104.606L102.174 32.6366H102.158V35.7969H100.273V28.5039H102.158V31.5103H102.174L104.453 28.5039Z" fill="#004B88"/>
<path d="M112.255 28.5039H113.851V35.7969H111.966V31.5994L108.954 35.7969H107.359V28.5039H109.244V32.5231L112.255 28.5039Z" fill="#004B88"/>
<path d="M119.967 28.5092H121.561V35.8021H119.677V31.6046L116.673 35.8021H115.078V28.5092H116.963V32.5284L119.967 28.5092ZM117.325 25.8594C117.406 26.3051 117.76 26.5482 118.235 26.5482C118.727 26.5482 119.089 26.3051 119.161 25.8594L120.385 26.062C120.329 26.9128 119.443 27.5935 118.244 27.5935C117.043 27.5935 116.157 26.9372 116.101 26.062L117.325 25.8594Z" fill="#004B88"/>
<path d="M130.974 28.5039H132.569V35.7969H130.684V31.5994L127.68 35.7969H126.086V28.5039H127.971V32.5231L130.974 28.5039Z" fill="#004B88"/>
<path d="M138.404 31.3158V28.5039H140.288V35.7969H138.404V32.8067H135.682V35.7969H133.797V28.5039H135.682V31.3158H138.404Z" fill="#004B88"/>
<path d="M146.698 30.9542C146.311 30.4356 145.69 30.152 145.046 30.152C143.894 30.152 143.114 31.0434 143.114 32.1697C143.114 33.3203 143.903 34.155 145.071 34.155C145.682 34.155 146.302 33.8552 146.698 33.3852V35.6541C146.069 35.8486 145.618 35.9944 145.038 35.9944C144.032 35.9944 143.065 35.6055 142.316 34.9167C141.519 34.1874 141.156 33.2474 141.156 32.1616C141.156 31.1649 141.535 30.2087 142.22 29.4956C142.928 28.7582 143.959 28.3125 144.982 28.3125C145.586 28.3125 146.142 28.4503 146.705 28.6772V30.9542H146.698Z" fill="#004B88"/>
<path d="M150.735 35.7969H148.85V30.1084H147.297V28.5039H152.297V30.1084H150.744V35.7969H150.735Z" fill="#004B88"/>
<path d="M157.865 28.5039H159.46V35.7969H157.575V31.5994L154.563 35.7969H152.969V28.5039H154.853V32.5231L157.865 28.5039Z" fill="#004B88"/>
<path d="M163.564 35.7969H161.679V30.1084H160.125V28.5039H165.126V30.1084H163.572V35.7969H163.564Z" fill="#004B88"/>
<path d="M168.839 35.7969H166.914L168.01 33.6333L165.328 28.5039H167.373L168.976 31.721L170.611 28.5039H172.656L168.839 35.7969Z" fill="#004B88"/>
<path d="M175.954 35.7969H174.07V30.1084H172.516V28.5039H177.517V30.1084H175.962V35.7969H175.954Z" fill="#004B88"/>
<path d="M179.53 33.4762L178.234 31.8232L178.741 31.418L180.36 33.4762L178.741 35.4777L178.234 35.0806L179.53 33.4762ZM181.165 33.4762L179.868 31.8232L180.376 31.418L181.987 33.4762L180.376 35.4777L179.868 35.0806L181.165 33.4762Z" fill="#004B88"/>
<path d="M177.165 22.7461H39.0938V23.7994H177.165V22.7461Z" fill="#004B88"/>
</svg>
